<svg width="760" height="724" viewBox="0 0 760 724" fill="none" xmlns="http://www.w3.org/2000/svg">
<g clip-path="url(#clip0_13914_1059)">
<path d="M434.317 455.273C421.291 455.273 409.234 456.889 398.471 460.098C387.744 463.295 378.788 466.994 371.868 471.089L371.114 471.544L375.999 486.641L377.172 485.994C384.451 481.984 392.796 478.667 401.943 476.165C411.114 473.651 422.009 472.382 434.317 472.382C450.001 472.382 462.165 476.021 470.45 483.193C478.687 490.329 482.866 503.031 482.866 520.942V532.831H438.89C412.036 532.831 391.383 537.919 377.507 547.94C363.511 558.045 356.424 573.382 356.424 593.52C356.424 602.296 357.932 610.162 360.913 616.878C363.882 623.607 368.097 629.39 373.413 634.071C378.716 638.728 385.074 642.272 392.329 644.607C399.525 646.929 407.355 648.103 415.58 648.103C431.491 648.103 445.439 644.583 457.017 637.627C467.696 631.221 476.52 622.278 483.273 611.048L487.571 645.05H502.249V520.93C502.249 500.876 496.55 484.749 485.332 472.992C474.102 461.235 456.933 455.273 434.317 455.273ZM482.878 549.916V569.443C482.878 576.902 481.369 584.349 478.376 591.556C475.383 598.788 471.025 605.421 465.422 611.275C459.818 617.13 452.803 621.931 444.577 625.546C436.364 629.162 426.75 630.994 415.987 630.994C410.516 630.994 405.224 630.24 400.255 628.755C395.322 627.282 390.964 624.972 387.277 621.895C383.601 618.83 380.68 614.915 378.597 610.257C376.514 605.588 375.448 599.961 375.448 593.52C375.448 578.434 380.369 567.3 390.066 560.428C399.896 553.46 416.322 549.928 438.902 549.928H482.878V549.916ZM672.738 492.376C670.451 488.664 667.698 484.941 664.525 481.253C660.526 476.608 655.701 472.31 650.182 468.467C644.65 464.612 638.341 461.415 631.397 458.972C624.429 456.518 616.599 455.285 608.11 455.285C597.563 455.285 587.506 457.44 578.239 461.69C568.972 465.94 560.687 472.274 553.611 480.499C546.548 488.724 540.884 498.865 536.79 510.646C532.695 522.427 530.612 536.04 530.612 551.113C530.612 568.234 532.624 583.056 536.586 595.196C540.561 607.384 546.164 617.549 553.24 625.391C560.328 633.257 568.828 639.075 578.502 642.679C588.14 646.271 598.736 648.091 610.014 648.091C624.68 648.091 637.551 644.427 648.254 637.208C657.844 630.731 665.926 622.182 672.319 611.73V635.148C672.319 647.684 670.858 658.495 667.985 667.271C665.124 675.975 661.089 683.098 656.012 688.438C650.948 693.754 644.734 697.633 637.563 699.992C630.307 702.362 622.07 703.572 613.079 703.572C601.274 703.572 590.247 702.171 580.334 699.417C570.373 696.639 561.777 693.323 554.773 689.576L553.611 688.953L548.343 705.212L549.158 705.643C556.305 709.474 565.428 713.102 576.287 716.418C587.182 719.746 599.299 721.435 612.325 721.435C637.204 721.435 656.934 714.263 670.978 700.099C684.998 685.936 692.11 664.218 692.11 635.532V458.338H677.048L672.738 492.376ZM672.331 515.124V562.954C672.331 571.203 671.002 579.452 668.38 587.438C665.758 595.412 661.843 602.691 656.731 609.06C651.63 615.406 645.189 620.578 637.611 624.433C630.044 628.276 621.148 630.228 611.175 630.228C603.441 630.228 595.791 628.839 588.451 626.097C581.136 623.379 574.611 618.842 569.02 612.64C563.417 606.414 558.867 598.189 555.491 588.192C552.115 578.171 550.391 565.696 550.391 551.113C550.391 537.788 552.043 526.09 555.299 516.321C558.544 506.575 562.974 498.41 568.457 492.053C573.917 485.731 580.274 480.942 587.35 477.829C594.438 474.728 602.076 473.148 610.014 473.148C622.956 473.148 634.809 476.991 645.273 484.594C655.737 492.172 664.836 502.457 672.331 515.124ZM738.408 385.377H758.174V645.038H738.408V385.377Z" fill="black"/>
<path d="M71.4055 146.13C84.7908 135.391 104.533 137.558 115.273 150.943L283.81 361.013C294.55 374.398 292.383 394.141 278.997 404.881C265.612 415.62 245.869 413.453 235.13 400.068L66.5925 189.997C55.8531 176.612 58.0202 156.869 71.4055 146.13Z" fill="url(#paint0_linear_13914_1059)"/>
<path d="M2.252 496.075C5.07751 479.146 21.2404 467.605 38.1696 470.43L233.238 502.972C250.167 505.797 261.709 521.96 258.883 538.889C256.058 555.818 239.895 567.36 222.966 564.534L27.8852 531.993C10.956 529.168 -0.573525 513.005 2.252 496.075Z" fill="url(#paint1_linear_13914_1059)"/>
<path d="M319.608 3.27363C336.657 1.29816 352.221 13.6179 354.209 30.6668L385.278 298.193C387.253 315.242 374.933 330.806 357.884 332.794C340.836 334.769 325.271 322.45 323.284 305.401L292.215 37.8743C290.24 20.8254 302.559 5.26107 319.608 3.27363Z" fill="url(#paint2_linear_13914_1059)"/>
<path d="M545.913 74.5462C562.04 80.4247 570.409 98.4314 564.53 114.558L490.732 316.775C484.853 332.902 466.846 341.27 450.719 335.392C434.592 329.513 426.224 311.507 432.102 295.38L505.901 93.1635C511.791 77.0365 529.786 68.6677 545.913 74.5462Z" fill="url(#paint3_linear_13914_1059)"/>
<path d="M669.063 237.935C681.778 249.465 682.747 269.292 671.23 282.006L585.997 376.039C574.468 388.754 554.641 389.723 541.926 378.206C529.211 366.676 528.242 346.85 539.759 334.135L624.992 240.102C636.509 227.388 656.348 226.418 669.063 237.935Z" fill="url(#paint4_linear_13914_1059)"/>
</g>
<defs>
<linearGradient id="paint0_linear_13914_1059" x1="278.885" y1="404.793" x2="35.0665" y2="186.5" gradientUnits="userSpaceOnUse">
<stop stop-color="#4CE9F2"/>
<stop offset="0.6" stop-color="#00DFED"/>
<stop offset="0.6413" stop-color="#00D6EA"/>
<stop offset="0.7088" stop-color="#00BEE3"/>
<stop offset="0.7941" stop-color="#0096D6"/>
<stop offset="0.8937" stop-color="#005FC5"/>
<stop offset="1" stop-color="#001CB0"/>
</linearGradient>
<linearGradient id="paint1_linear_13914_1059" x1="259.034" y1="538.521" x2="135.633" y2="387.113" gradientUnits="userSpaceOnUse">
<stop stop-color="#4CE9F2"/>
<stop offset="0.6" stop-color="#00DFED"/>
<stop offset="0.6413" stop-color="#00D6EA"/>
<stop offset="0.7088" stop-color="#00BEE3"/>
<stop offset="0.7941" stop-color="#0096D6"/>
<stop offset="0.8937" stop-color="#005FC5"/>
<stop offset="1" stop-color="#001CB0"/>
</linearGradient>
<linearGradient id="paint2_linear_13914_1059" x1="357.779" y1="333" x2="177.765" y2="208.622" gradientUnits="userSpaceOnUse">
<stop stop-color="#4CE9F2"/>
<stop offset="0.6" stop-color="#00DFED"/>
<stop offset="0.6413" stop-color="#00D6EA"/>
<stop offset="0.7088" stop-color="#00BEE3"/>
<stop offset="0.7941" stop-color="#0096D6"/>
<stop offset="0.8937" stop-color="#005FC5"/>
<stop offset="1" stop-color="#001CB0"/>
</linearGradient>
<linearGradient id="paint3_linear_13914_1059" x1="450.614" y1="335.485" x2="636.955" y2="200.215" gradientUnits="userSpaceOnUse">
<stop stop-color="#4CE9F2"/>
<stop offset="0.6" stop-color="#00DFED"/>
<stop offset="0.6413" stop-color="#00D6EA"/>
<stop offset="0.7088" stop-color="#00BEE3"/>
<stop offset="0.7941" stop-color="#0096D6"/>
<stop offset="0.8937" stop-color="#005FC5"/>
<stop offset="1" stop-color="#001CB0"/>
</linearGradient>
<linearGradient id="paint4_linear_13914_1059" x1="541.841" y1="378.29" x2="676.659" y2="245.832" gradientUnits="userSpaceOnUse">
<stop stop-color="#4CE9F2"/>
<stop offset="0.6" stop-color="#00DFED"/>
<stop offset="0.6413" stop-color="#00D6EA"/>
<stop offset="0.7088" stop-color="#00BEE3"/>
<stop offset="0.7941" stop-color="#0096D6"/>
<stop offset="0.8937" stop-color="#005FC5"/>
<stop offset="1" stop-color="#001CB0"/>
</linearGradient>
<clipPath id="clip0_13914_1059">
<rect width="760" height="723.461" fill="white" transform="translate(0 0.519226)"/>
</clipPath>
</defs>
</svg>
