<svg width="24" height="24" viewBox="0 0 24 24" fill="none" xmlns="http://www.w3.org/2000/svg">
<path d="M19.457 10.7975C19.377 10.6165 19.1981 10.5005 19.0001 10.5005H14.5001V3.00048C14.5001 2.79348 14.3731 2.60748 14.1791 2.53348C13.9841 2.45848 13.767 2.51247 13.628 2.66547L4.62805 12.6655C4.49605 12.8125 4.46209 13.0225 4.54309 13.2035C4.62309 13.3845 4.80206 13.5005 5.00006 13.5005H9.50006V21.0005C9.50006 21.2075 9.62704 21.3935 9.82104 21.4675C9.88004 21.4895 9.94006 21.5005 10.0001 21.5005C10.1391 21.5005 10.2751 21.4425 10.3721 21.3345L19.3721 11.3345C19.5041 11.1885 19.537 10.9775 19.457 10.7975Z" fill="white"/>
</svg>
