<svg width="2000" height="2000" viewBox="0 0 2000 2000" fill="none" xmlns="http://www.w3.org/2000/svg">
<g clip-path="url(#clip0_3347_1475)">
<g clip-path="url(#clip1_3347_1475)">
<path d="M1322.91 666.749L1322.91 -5.78264e-05L1333.5 -5.82891e-05L1333.5 666.749C1333.5 1033.43 1033.64 1333.5 666.749 1333.5L5.82891e-05 1333.5L5.78264e-05 1322.91L666.749 1322.91C754.278 1323.04 840.924 1305.42 921.454 1271.13C1078.73 1204.07 1204 1078.8 1271.06 921.525C1305.39 840.978 1323.03 754.307 1322.91 666.749V666.749Z" fill="white" fill-opacity="0.1"/>
<path d="M989.434 -4.32495e-05L1000.02 -4.37122e-05L1000.02 499.991C1000.02 775.157 775.016 1000.02 499.991 1000.02L4.37122e-05 1000.02L4.32495e-05 989.434L499.991 989.434C629.677 989.034 753.936 937.34 845.638 845.638C937.34 753.936 989.034 629.676 989.434 499.991L989.434 -4.32495e-05Z" fill="white" fill-opacity="0.1"/>
</g>
</g>
<defs>
<clipPath id="clip0_3347_1475">
<rect width="2000" height="2000" fill="white" transform="translate(0 2000) rotate(-90)"/>
</clipPath>
<clipPath id="clip1_3347_1475">
<rect width="2000" height="2000" fill="white" transform="matrix(4.37114e-08 1 1 -4.37114e-08 0 0)"/>
</clipPath>
</defs>
</svg>
