<svg width="2000" height="2000" viewBox="0 0 2000 2000" fill="none" xmlns="http://www.w3.org/2000/svg">
<g clip-path="url(#clip0_3347_1468)">
<path d="M1333.25 1322.91H2000V1333.5H1333.25C966.574 1333.5 666.502 1033.64 666.502 666.749V0H677.085V666.749C676.959 754.278 694.577 840.924 728.873 921.454C795.933 1078.73 921.197 1204 1078.48 1271.06C1159.02 1305.39 1245.69 1323.03 1333.25 1322.91V1322.91Z" fill="white" fill-opacity="0.1"/>
<path d="M2000 989.434V1000.02H1500.01C1224.84 1000.02 999.982 775.016 999.982 499.991V0H1010.57V499.991C1010.97 629.677 1062.66 753.936 1154.36 845.638C1246.06 937.34 1370.32 989.034 1500.01 989.434H2000Z" fill="white" fill-opacity="0.1"/>
</g>
<defs>
<clipPath id="clip0_3347_1468">
<rect width="2000" height="2000" fill="white" transform="matrix(1 0 0 -1 0 2000)"/>
</clipPath>
</defs>
</svg>
