<svg width="526" height="275" viewBox="0 0 526 275" fill="none" xmlns="http://www.w3.org/2000/svg">
<g clip-path="url(#clip0_485_911)">
<path d="M333.976 214.967C334.329 213.466 334.975 212.051 335.876 210.801C336.777 209.551 337.915 208.491 339.226 207.683L389.851 176.124C392.5 174.474 395.695 173.944 398.734 174.649C401.773 175.355 404.409 177.238 406.064 179.887C407.717 182.542 408.249 185.746 407.545 188.795C406.84 191.844 404.957 194.488 402.307 196.146L351.682 227.706C349.031 229.361 345.833 229.895 342.789 229.189C339.746 228.484 337.106 226.597 335.451 223.943C334.385 222.179 333.795 220.169 333.737 218.109C333.675 217.055 333.755 215.998 333.976 214.967ZM338.584 221.923C339.719 223.745 341.53 225.041 343.618 225.527C345.707 226.012 347.903 225.648 349.723 224.513L400.348 192.954C401.254 192.395 402.039 191.661 402.659 190.795C403.278 189.929 403.72 188.948 403.957 187.909C404.317 186.348 404.207 184.715 403.641 183.217C403.075 181.718 402.078 180.421 400.776 179.49C399.475 178.558 397.927 178.034 396.328 177.984C394.73 177.933 393.152 178.358 391.794 179.205L341.169 210.764C339.354 211.905 338.064 213.719 337.579 215.809C337.095 217.9 337.456 220.098 338.584 221.923Z" fill="url(#paint0_linear_485_911)"/>
<path d="M332.353 130.266C331.194 129.654 330.221 128.739 329.535 127.617V127.617C328.497 125.944 328.162 123.92 328.604 121.989C329.046 120.059 330.229 118.378 331.893 117.316L363.667 97.1473C364.492 96.6009 365.417 96.2251 366.386 96.0421C367.356 95.859 368.35 95.8723 369.312 96.0811C370.274 96.2899 371.183 96.69 371.987 97.2581C372.791 97.8262 373.474 98.5509 373.995 99.3897C374.516 100.228 374.865 101.165 375.021 102.143C375.178 103.122 375.139 104.124 374.907 105.09C374.675 106.055 374.255 106.966 373.67 107.769C373.086 108.571 372.349 109.249 371.503 109.763L339.719 129.955C338.896 130.482 337.978 130.841 337.018 131.008C336.059 131.176 335.077 131.15 334.13 130.932C333.512 130.787 332.914 130.563 332.353 130.266V130.266ZM331.528 126.401C332.245 127.547 333.384 128.357 334.698 128.654C336.011 128.952 337.392 128.712 338.537 127.988L370.321 107.796C371.463 107.069 372.276 105.917 372.581 104.593C372.887 103.269 372.661 101.88 371.952 100.731C371.235 99.5849 370.095 98.7748 368.782 98.4774C367.468 98.18 366.088 98.4195 364.943 99.1436L333.148 119.33C332.006 120.059 331.195 121.213 330.891 122.538C330.587 123.863 330.816 125.252 331.528 126.401V126.401Z" fill="url(#paint1_linear_485_911)"/>
<path d="M384.555 225.266H323.976C321.055 225.266 318.169 224.621 315.518 223.374C312.867 222.127 310.513 220.308 308.621 218.045C306.729 215.781 305.343 213.126 304.559 210.264C303.776 207.402 303.613 204.4 304.082 201.468L329.841 39.9502C330.614 35.1427 333.041 30.771 336.689 27.6148C340.337 24.4587 344.968 22.7235 349.757 22.7188H410.314C413.236 22.7194 416.122 23.3655 418.774 24.6123C421.426 25.859 423.781 27.6767 425.675 29.9398C427.569 32.2029 428.957 34.8573 429.743 37.7196C430.529 40.5819 430.696 43.5838 430.23 46.5178L404.449 208.035C403.681 212.841 401.258 217.212 397.614 220.368C393.97 223.525 389.341 225.261 384.555 225.266Z" fill="url(#paint2_linear_485_911)"/>
<path d="M405.071 274.934C405.071 274.934 368.223 264.947 353.337 236.542C338.451 208.138 321.99 181.402 333.748 172.772C345.505 164.142 378.583 229.069 393.313 211.275C408.044 193.48 421.599 99.7266 421.599 99.7266C421.599 99.7266 437.993 131.89 437.993 180.624C437.993 229.358 405.071 274.934 405.071 274.934Z" fill="#00DFED"/>
<path d="M278.25 121.89C278.25 121.89 285.687 223.153 180.406 194.328C197.435 169.042 197.123 139.725 197.123 139.725C197.123 139.725 211.547 155.636 220.05 144.456C227.019 135.303 212.469 125.137 212.469 125.137C245.918 118.741 251.087 89.185 251.087 89.185C260.975 95.3301 271.312 100.716 282.011 105.298C290.129 108.384 285.883 116.422 278.25 121.89Z" fill="url(#paint3_linear_485_911)"/>
<circle cx="239" cy="114" r="6" fill="white"/>
<path d="M284.179 70.3702C279.809 86.8903 262.931 92.2519 251.094 89.2322C249.559 95.8375 246.614 102.031 242.461 107.384C238.309 112.738 233.047 117.125 227.04 120.243C213.862 114.102 198.858 120.089 198.858 120.089C203.83 120.252 208.613 122.042 212.476 125.185L212.753 125.386L213.106 125.648L213.538 125.994C216.789 128.602 225.855 136.896 220.057 144.503C219.088 145.94 217.728 147.068 216.137 147.751C214.547 148.434 212.795 148.644 211.088 148.356C204.037 147.379 197.13 139.772 197.13 139.772C197.13 139.772 197.46 170.085 179.583 195.651C161.706 221.217 132.383 215.784 128.877 201.07C127.214 194.116 128.04 186.797 131.212 180.391L130.595 181.296C131.072 180.175 138.797 161.982 140.603 158.648C139.838 159.476 114.557 186.726 96.2591 193.475C88.2502 196.402 81.0419 201.18 75.2185 207.422C67.9741 204.702 65.558 200.238 65.4382 195.82C65.2954 189.942 69.1178 183.507 72.4146 181.724L229.263 72.6853L241.818 62.7706C241.818 62.7706 254.027 50.5745 270.326 48.5491C286.626 46.5238 286.091 63.1963 284.179 70.3702Z" fill="url(#paint4_linear_485_911)"/>
<path d="M103.436 160.127C103.436 160.127 57.6523 87.0364 134.182 37.972C194.162 -0.477228 231.809 35.5606 245.286 52.9456L313.967 3.01585C316.193 1.3955 318.97 0.728102 321.687 1.16065C324.404 1.5932 326.839 3.09012 328.455 5.3222L219.215 83.2998L103.436 160.127Z" fill="url(#paint5_linear_485_911)"/>
</g>
<defs>
<linearGradient id="paint0_linear_485_911" x1="550.641" y1="68.5354" x2="233.146" y2="236.722" gradientUnits="userSpaceOnUse">
<stop offset="0.37" stop-color="#0025A9"/>
<stop offset="0.44" stop-color="#0228AA"/>
<stop offset="0.5" stop-color="#0833AE"/>
<stop offset="0.55" stop-color="#1145B4"/>
<stop offset="0.6" stop-color="#1F5EBD"/>
<stop offset="0.66" stop-color="#307EC9"/>
<stop offset="0.71" stop-color="#46A6D7"/>
<stop offset="0.76" stop-color="#63DCEA"/>
</linearGradient>
<linearGradient id="paint1_linear_485_911" x1="478.691" y1="19.6172" x2="295.375" y2="153.067" gradientUnits="userSpaceOnUse">
<stop offset="0.53" stop-color="#001CB0"/>
<stop offset="0.93" stop-color="#00DFED"/>
</linearGradient>
<linearGradient id="paint2_linear_485_911" x1="303.798" y1="123.993" x2="430.492" y2="123.993" gradientUnits="userSpaceOnUse">
<stop offset="0.04" stop-color="#2B2E31"/>
<stop offset="0.85" stop-color="#161819"/>
</linearGradient>
<linearGradient id="paint3_linear_485_911" x1="234533" y1="39431.4" x2="235353" y2="48189.2" gradientUnits="userSpaceOnUse">
<stop offset="0.4" stop-color="#001CB0"/>
<stop offset="1" stop-color="#263EBC"/>
</linearGradient>
<linearGradient id="paint4_linear_485_911" x1="207.936" y1="87.7745" x2="90.7227" y2="371.319" gradientUnits="userSpaceOnUse">
<stop offset="0.06" stop-color="#9AEDF4"/>
<stop offset="0.6" stop-color="#04DFED"/>
</linearGradient>
<linearGradient id="paint5_linear_485_911" x1="172.11" y1="-133.945" x2="221.015" y2="106.401" gradientUnits="userSpaceOnUse">
<stop offset="0.04" stop-color="#2B2E31"/>
<stop offset="0.85" stop-color="#161819"/>
</linearGradient>
<clipPath id="clip0_485_911">
<rect width="526" height="275" fill="white"/>
</clipPath>
</defs>
</svg>
