<svg width="526" height="329" viewBox="0 0 526 329" fill="none" xmlns="http://www.w3.org/2000/svg">
<path d="M46.1445 145.218L110.614 88.1641L175.083 145.218V241.632H46.1445V145.218Z" fill="url(#paint0_linear_512_547)"/>
<rect x="175.078" y="145.398" width="109.44" height="96.2321" fill="url(#paint1_linear_512_547)"/>
<path d="M110.609 88.1641H220.05L284.519 145.4H175.079L110.609 88.1641Z" fill="url(#paint2_linear_512_547)"/>
<path d="M133.566 95.7109H213.915L261.247 137.852H180.898L133.566 95.7109Z" fill="#2F3235"/>
<path d="M133.566 95.7109H213.915L261.247 137.852H180.898L133.566 95.7109Z" fill="url(#paint3_linear_512_547)" fill-opacity="0.2"/>
<path d="M92.168 188.126C92.168 187.435 92.7282 186.875 93.4194 186.875H121.032C121.723 186.875 122.284 187.435 122.284 188.126V241.529H92.168V188.126Z" fill="#0022AA"/>
<path d="M95.5138 209.188H94.3984V218.668H95.5138V209.188Z" fill="white"/>
<rect x="57.4648" y="176.281" width="25.1587" height="36.4801" rx="1.25142" fill="white"/>
<rect x="57.4648" y="176.281" width="25.1587" height="36.4801" rx="1.25142" fill="url(#paint4_linear_512_547)"/>
<rect x="132.312" y="176.281" width="25.1587" height="36.4801" rx="1.25142" fill="white"/>
<rect x="132.312" y="176.281" width="25.1587" height="36.4801" rx="1.25142" fill="url(#paint5_linear_512_547)"/>
<rect x="236.609" y="176.281" width="36.2503" height="36.808" rx="1.25142" fill="white"/>
<rect x="236.609" y="176.281" width="36.2503" height="36.808" rx="1.25142" fill="url(#paint6_linear_512_547)"/>
<path d="M70.6869 241.934L25.668 241.788C25.668 241.788 23.6972 241.353 24.2124 239.577C24.5769 238.321 25.8579 238.72 25.8579 238.72C25.8579 238.72 25.43 235.269 27.7869 234.154C27.7869 234.154 26.0907 233.599 26.8869 231.797C27.683 229.996 29.3728 230.168 29.3728 230.168C29.3728 230.168 27.9881 228.539 28.5589 227.425C29.1298 226.311 30.0373 226.589 30.0373 226.589C30.0373 226.589 30.2272 223.728 32.5866 222.195C35.3206 220.423 38.7153 221.359 38.7153 221.359C38.7153 221.359 39.2798 218.783 41.9733 219.665C41.9733 219.665 43.796 215.361 48.9869 216.45C54.1777 217.539 56.0219 221.525 56.0219 221.525C56.0219 221.525 56.9623 220.569 59.161 221.447C60.7621 222.086 61.5925 223.643 61.5925 223.643C61.5925 223.643 63.443 223.175 64.7189 225.684C65.9947 228.193 65.8707 231.842 65.8707 231.842C65.8707 231.842 68.2313 232.221 68.5389 234.098C68.8465 235.974 68.7768 236.971 68.7768 236.971C68.7768 236.971 69.5236 235.465 70.7603 235.889C71.9969 236.313 72.1728 237.927 71.2792 240.446C70.7932 241.82 70.6869 241.934 70.6869 241.934Z" fill="#A4FAFF"/>
<path d="M172.285 241.813L133.046 241.932C133.046 241.932 131.381 239.4 133.763 237.526C135.25 236.355 136.39 236.779 136.39 236.779C136.39 236.779 136.482 231.552 139.198 230C141.914 228.448 145.439 229.969 145.439 229.969C145.439 229.969 147.034 226.285 149.321 228.297C149.321 228.297 148.896 221.684 153.144 221.099C158.426 220.372 159.773 228.864 159.773 228.864C159.773 228.864 163.726 224.627 167.358 227.669C173.727 233.004 172.286 240.871 172.286 240.871L172.285 241.813Z" fill="#A4FAFF"/>
<path d="M172.37 241.831L227.891 241.655C227.891 241.655 230.322 241.117 229.687 238.927C229.238 237.377 227.652 237.87 227.652 237.87C227.652 237.87 228.181 233.614 225.273 232.239C225.273 232.239 227.364 231.555 226.383 229.327C225.403 227.099 223.318 227.318 223.318 227.318C223.318 227.318 225.025 225.308 224.322 223.934C223.618 222.56 222.498 222.903 222.498 222.903C222.498 222.903 222.263 219.375 219.353 217.485C215.983 215.295 211.794 216.453 211.794 216.453C211.794 216.453 211.1 213.277 207.778 214.366C207.778 214.366 205.53 209.049 199.128 210.399C192.726 211.75 190.451 216.658 190.451 216.658C190.451 216.658 189.292 215.48 186.581 216.562C184.605 217.351 183.581 219.271 183.581 219.271C183.581 219.271 181.303 218.693 179.727 221.787C178.151 224.881 178.305 229.383 178.305 229.383C178.305 229.383 175.394 229.854 175.014 232.168C174.635 234.482 174.719 235.713 174.719 235.713C174.719 235.713 173.799 233.855 172.274 234.378C170.749 234.901 170.532 236.892 171.641 239.994C172.24 241.69 172.37 241.831 172.37 241.831Z" fill="#A4FAFF"/>
<path d="M189.089 220.133C189.089 220.133 191.951 222.253 189.862 225.173C189.862 225.173 187.964 223.689 188.301 221.755C188.399 221.148 188.672 220.584 189.089 220.133V220.133Z" fill="url(#paint7_linear_512_547)"/>
<path d="M223.511 217.238C223.511 217.238 224.095 220.894 219.956 221.045C219.956 221.045 219.632 218.571 221.512 217.627C222.131 217.318 222.822 217.184 223.511 217.238V217.238Z" fill="url(#paint8_linear_512_547)"/>
<path d="M217.564 229.492C217.564 229.492 221.235 230.012 220.152 234.012C220.152 234.012 217.693 233.591 217.347 231.516C217.234 230.834 217.309 230.135 217.564 229.492V229.492Z" fill="url(#paint9_linear_512_547)"/>
<path d="M210.766 218.18C210.766 218.18 212.354 220.585 209.557 222.07C209.557 222.07 208.533 220.415 209.519 219.119C209.839 218.696 210.271 218.371 210.766 218.18V218.18Z" fill="url(#paint10_linear_512_547)"/>
<path d="M178.308 218.812C178.308 218.812 182.443 218.939 182.105 223.3C182.105 223.3 179.321 223.141 178.495 220.984C178.227 220.293 178.162 219.539 178.308 218.812V218.812Z" fill="url(#paint11_linear_512_547)"/>
<path d="M223.374 225.898C223.374 225.898 226.032 226.35 225.463 229.127C225.463 229.127 223.671 228.775 223.312 227.313C223.196 226.845 223.218 226.354 223.374 225.898V225.898Z" fill="url(#paint12_linear_512_547)"/>
<path d="M52.1566 238.853C52.1566 238.853 52.6313 241.817 49.2745 241.94C49.2745 241.94 49.0125 239.934 50.5403 239.168C51.0404 238.918 51.5992 238.81 52.1566 238.853V238.853Z" fill="url(#paint13_linear_512_547)"/>
<path d="M61.9333 232.922C61.9333 232.922 64.9041 233.343 64.0307 236.593C64.0307 236.593 62.0371 236.253 61.7523 234.568C61.6611 234.013 61.7237 233.444 61.9333 232.922V232.922Z" fill="url(#paint14_linear_512_547)"/>
<path d="M64.3352 229.719C64.3352 229.719 65.6225 231.672 63.3555 232.872C63.3555 232.872 62.5239 231.532 63.3239 230.481C63.5838 230.138 63.934 229.874 64.3352 229.719V229.719Z" fill="url(#paint15_linear_512_547)"/>
<path d="M72.7461 234.235C72.7461 234.235 72.6195 236.424 70.3298 236.206C70.3298 236.206 70.4564 234.73 71.5955 234.316C71.9632 234.179 72.3628 234.151 72.7461 234.235V234.235Z" fill="url(#paint16_linear_512_547)"/>
<path d="M30.1038 224.266C30.1038 224.266 33.4568 224.366 33.1834 227.904C33.1834 227.904 30.9215 227.777 30.2557 226.025C30.0387 225.465 29.986 224.855 30.1038 224.266Z" fill="url(#paint17_linear_512_547)"/>
<path d="M171.208 228.922C171.208 228.922 172.456 231.32 169.894 232.536C169.894 232.536 169.095 230.89 170.047 229.73C170.349 229.355 170.752 229.075 171.208 228.922V228.922Z" fill="url(#paint18_linear_512_547)"/>
<path d="M145.602 226.234C145.602 226.234 148.268 226.685 147.692 229.463C147.692 229.463 145.901 229.109 145.54 227.647C145.425 227.18 145.447 226.69 145.602 226.234V226.234Z" fill="url(#paint19_linear_512_547)"/>
<path d="M137.216 232.664C137.216 232.664 138.663 234.943 136.214 236.376C136.214 236.376 135.278 234.809 136.129 233.568C136.397 233.169 136.775 232.855 137.216 232.664V232.664Z" fill="url(#paint20_linear_512_547)"/>
<g opacity="0.9">
<path opacity="0.9" d="M205.378 95.7691L252.503 137.875L252.782 137.875L205.657 95.7691L205.378 95.7691Z" fill="#A0A0A0"/>
<path opacity="0.9" d="M196.456 95.7691L243.582 137.875L243.86 137.875L196.735 95.7691L196.456 95.7691Z" fill="#A0A0A0"/>
<path opacity="0.9" d="M190.862 95.7673L237.857 137.873L238.84 137.873L191.715 95.7673L190.862 95.7673Z" fill="white"/>
<path opacity="0.9" d="M181.397 95.7691L228.523 137.875L228.802 137.875L181.676 95.7691L181.397 95.7691Z" fill="#A0A0A0"/>
<path opacity="0.9" d="M171.358 95.7691L218.484 137.875L218.763 137.875L171.637 95.7691L171.358 95.7691Z" fill="#A0A0A0"/>
<path opacity="0.9" d="M165.768 95.7673L212.763 137.873L213.747 137.873L166.621 95.7673L165.768 95.7673Z" fill="white"/>
<path opacity="0.9" d="M160.765 95.7691L207.89 137.875L208.169 137.875L161.043 95.7691L160.765 95.7691Z" fill="#A0A0A0"/>
<path opacity="0.9" d="M149.054 95.7691L196.179 137.875L196.458 137.875L149.332 95.7691L149.054 95.7691Z" fill="#A0A0A0"/>
<path opacity="0.9" d="M137.893 95.7691L185.019 137.875L185.298 137.875L138.172 95.7691L137.893 95.7691Z" fill="#A0A0A0"/>
</g>
<g opacity="0.9">
<path opacity="0.9" d="M136.786 98.6797L136.834 98.9552H185.197L217.355 98.9585L217.339 98.8689L217.307 98.683L185.147 98.6797H136.786Z" fill="#919191"/>
<path opacity="0.9" d="M224.645 105.373L192.486 105.369H160.365H160.328H144.128L144.08 105.094H160.278H160.317H192.437L224.595 105.097L224.645 105.373Z" fill="#919191"/>
<path opacity="0.9" d="M147.789 108.365L148.494 109.076L196.426 108.641L228.445 108.644L227.687 107.961H196.177L147.789 108.365Z" fill="white"/>
<path opacity="0.9" d="M165.783 124.406L165.833 124.682H214.187L246.344 124.685V124.672L246.297 124.406H214.139H165.783Z" fill="#919191"/>
<path opacity="0.9" d="M154.677 114.547L154.725 114.826H235.234L235.186 114.547H154.677Z" fill="#919191"/>
<path opacity="0.9" d="M172.439 130.594L172.487 130.873H252.996L252.948 130.594H172.439Z" fill="#919191"/>
<path opacity="0.9" d="M162.289 121.193L162.994 121.904L210.926 121.469L242.945 121.472L242.187 120.789H210.677L162.289 121.193Z" fill="white"/>
</g>
<path opacity="0.2" d="M92.168 234.047L109.457 186.875H121.032C121.723 186.875 122.284 187.435 122.284 188.126V241.529H92.168V234.047Z" fill="white"/>
<path d="M133.652 97.5412V95.6641L180.893 137.587H260.984L261.61 139.151H180.268L179.642 138.838L133.652 97.5412Z" fill="black"/>
<path d="M483.242 77.5033L429.573 30.0078L375.904 77.5033V157.766H483.242V77.5033Z" fill="url(#paint21_linear_512_547)"/>
<rect width="91.1062" height="80.1106" transform="matrix(-1 0 0 1 375.906 77.6562)" fill="url(#paint22_linear_512_547)"/>
<path d="M429.578 30.0078H338.472L284.803 77.6553H375.909L429.578 30.0078Z" fill="url(#paint23_linear_512_547)"/>
<path d="M410.461 36.2891H343.573L304.17 71.3702H371.058L410.461 36.2891Z" fill="#2F3235"/>
<path d="M410.461 36.2891H343.573L304.17 71.3702H371.058L410.461 36.2891Z" fill="url(#paint24_linear_512_547)" fill-opacity="0.2"/>
<path d="M444.926 113.229C444.926 112.654 444.459 112.188 443.884 112.188H420.897C420.322 112.188 419.855 112.654 419.855 113.229V157.686H444.926V113.229Z" fill="#0022AA"/>
<path d="M442.146 130.75H443.074V138.643H442.146V130.75Z" fill="white"/>
<rect width="20.9439" height="30.3687" rx="1.04177" transform="matrix(-1 0 0 1 473.82 103.367)" fill="white"/>
<rect width="20.9439" height="30.3687" rx="1.04177" transform="matrix(-1 0 0 1 473.82 103.367)" fill="url(#paint25_linear_512_547)"/>
<rect width="20.9439" height="30.3687" rx="1.04177" transform="matrix(-1 0 0 1 411.512 103.367)" fill="white"/>
<rect width="20.9439" height="30.3687" rx="1.04177" transform="matrix(-1 0 0 1 411.512 103.367)" fill="url(#paint26_linear_512_547)"/>
<rect width="30.1774" height="30.6417" rx="1.04177" transform="matrix(-1 0 0 1 324.684 103.367)" fill="white"/>
<rect width="30.1774" height="30.6417" rx="1.04177" transform="matrix(-1 0 0 1 324.684 103.367)" fill="url(#paint27_linear_512_547)"/>
<path d="M462.815 158.018L500.292 157.897C500.292 157.897 501.933 157.534 501.504 156.056C501.201 155.01 500.134 155.342 500.134 155.342C500.134 155.342 500.49 152.469 498.528 151.542C498.528 151.542 499.94 151.079 499.278 149.579C498.615 148.08 497.208 148.223 497.208 148.223C497.208 148.223 498.361 146.867 497.886 145.939C497.41 145.012 496.655 145.244 496.655 145.244C496.655 145.244 496.497 142.862 494.533 141.586C492.257 140.11 489.431 140.89 489.431 140.89C489.431 140.89 488.961 138.745 486.719 139.48C486.719 139.48 485.201 135.897 480.88 136.803C476.559 137.71 475.023 141.028 475.023 141.028C475.023 141.028 474.241 140.233 472.41 140.963C471.077 141.495 470.386 142.791 470.386 142.791C470.386 142.791 468.846 142.401 467.783 144.49C466.721 146.579 466.825 149.616 466.825 149.616C466.825 149.616 464.859 149.932 464.603 151.494C464.347 153.056 464.405 153.887 464.405 153.887C464.405 153.887 463.784 152.633 462.754 152.986C461.725 153.339 461.578 154.682 462.322 156.78C462.727 157.923 462.815 158.018 462.815 158.018Z" fill="#A4FAFF"/>
<path d="M378.239 157.921L410.903 158.02C410.903 158.02 412.29 155.912 410.307 154.353C409.069 153.378 408.12 153.731 408.12 153.731C408.12 153.731 408.044 149.379 405.782 148.087C403.521 146.795 400.587 148.062 400.587 148.062C400.587 148.062 399.259 144.995 397.355 146.67C397.355 146.67 397.709 141.164 394.173 140.677C389.776 140.072 388.655 147.142 388.655 147.142C388.655 147.142 385.364 143.615 382.34 146.147C377.037 150.588 378.238 157.137 378.238 157.137L378.239 157.921Z" fill="#A4FAFF"/>
<path d="M378.166 157.935L331.947 157.788C331.947 157.788 329.922 157.34 330.451 155.517C330.826 154.227 332.146 154.637 332.146 154.637C332.146 154.637 331.705 151.094 334.126 149.949C334.126 149.949 332.385 149.38 333.202 147.526C334.018 145.671 335.754 145.853 335.754 145.853C335.754 145.853 334.332 144.179 334.918 143.036C335.504 141.893 336.436 142.178 336.436 142.178C336.436 142.178 336.631 139.241 339.054 137.667C341.86 135.844 345.347 136.809 345.347 136.809C345.347 136.809 345.925 134.164 348.69 135.071C348.69 135.071 350.561 130.644 355.891 131.769C361.221 132.893 363.114 136.979 363.114 136.979C363.114 136.979 364.079 135.998 366.336 136.899C367.981 137.556 368.834 139.155 368.834 139.155C368.834 139.155 370.73 138.673 372.042 141.249C373.354 143.824 373.225 147.572 373.225 147.572C373.225 147.572 375.649 147.964 375.965 149.89C376.281 151.817 376.211 152.841 376.211 152.841C376.211 152.841 376.977 151.295 378.246 151.731C379.516 152.166 379.696 153.824 378.773 156.406C378.275 157.818 378.166 157.935 378.166 157.935Z" fill="#A4FAFF"/>
<path d="M364.248 139.867C364.248 139.867 361.865 141.632 363.604 144.063C363.604 144.063 365.184 142.828 364.903 141.217C364.822 140.713 364.594 140.243 364.248 139.867V139.867Z" fill="url(#paint28_linear_512_547)"/>
<path d="M335.59 137.463C335.59 137.463 335.103 140.507 338.549 140.632C338.549 140.632 338.819 138.573 337.254 137.786C336.739 137.53 336.164 137.418 335.59 137.463V137.463Z" fill="url(#paint29_linear_512_547)"/>
<path d="M340.539 147.672C340.539 147.672 337.483 148.105 338.385 151.434C338.385 151.434 340.432 151.084 340.72 149.357C340.814 148.789 340.752 148.207 340.539 147.672V147.672Z" fill="url(#paint30_linear_512_547)"/>
<path d="M346.198 138.25C346.198 138.25 344.876 140.252 347.204 141.489C347.204 141.489 348.057 140.111 347.236 139.032C346.969 138.68 346.61 138.409 346.198 138.25V138.25Z" fill="url(#paint31_linear_512_547)"/>
<path d="M373.22 138.773C373.22 138.773 369.778 138.879 370.059 142.509C370.059 142.509 372.377 142.377 373.064 140.581C373.288 140.006 373.342 139.378 373.22 138.773V138.773Z" fill="url(#paint32_linear_512_547)"/>
<path d="M335.704 144.672C335.704 144.672 333.492 145.048 333.965 147.359C333.965 147.359 335.457 147.066 335.756 145.849C335.852 145.46 335.834 145.051 335.704 144.672V144.672Z" fill="url(#paint33_linear_512_547)"/>
<path d="M478.238 155.445C478.238 155.445 477.843 157.912 480.637 158.015C480.637 158.015 480.855 156.345 479.584 155.708C479.167 155.5 478.702 155.409 478.238 155.445V155.445Z" fill="url(#paint34_linear_512_547)"/>
<path d="M470.099 150.508C470.099 150.508 467.625 150.859 468.353 153.564C468.353 153.564 470.012 153.281 470.249 151.878C470.325 151.416 470.273 150.942 470.099 150.508V150.508Z" fill="url(#paint35_linear_512_547)"/>
<path d="M468.1 147.844C468.1 147.844 467.028 149.47 468.915 150.469C468.915 150.469 469.608 149.353 468.942 148.478C468.725 148.193 468.434 147.973 468.1 147.844V147.844Z" fill="url(#paint36_linear_512_547)"/>
<path d="M461.098 151.602C461.098 151.602 461.203 153.424 463.109 153.243C463.109 153.243 463.004 152.014 462.055 151.67C461.749 151.555 461.417 151.532 461.098 151.602V151.602Z" fill="url(#paint37_linear_512_547)"/>
<path d="M496.6 143.305C496.6 143.305 493.809 143.388 494.037 146.334C494.037 146.334 495.92 146.228 496.474 144.77C496.654 144.303 496.698 143.795 496.6 143.305Z" fill="url(#paint38_linear_512_547)"/>
<path d="M379.136 147.188C379.136 147.188 378.097 149.184 380.23 150.196C380.23 150.196 380.894 148.826 380.102 147.86C379.851 147.548 379.515 147.315 379.136 147.188V147.188Z" fill="url(#paint39_linear_512_547)"/>
<path d="M400.452 144.945C400.452 144.945 398.233 145.32 398.712 147.633C398.712 147.633 400.203 147.339 400.504 146.121C400.599 145.733 400.581 145.324 400.452 144.945V144.945Z" fill="url(#paint40_linear_512_547)"/>
<path d="M407.431 150.297C407.431 150.297 406.227 152.194 408.266 153.387C408.266 153.387 409.045 152.082 408.337 151.049C408.113 150.717 407.799 150.456 407.431 150.297V150.297Z" fill="url(#paint41_linear_512_547)"/>
<g opacity="0.9">
<path opacity="0.9" d="M350.689 36.3385L311.458 71.3907L311.226 71.3907L350.457 36.3385L350.689 36.3385Z" fill="#A0A0A0"/>
<path opacity="0.9" d="M358.115 36.3385L318.884 71.3907L318.652 71.3907L357.883 36.3385L358.115 36.3385Z" fill="#A0A0A0"/>
<path opacity="0.9" d="M362.775 36.3369L323.653 71.3891L322.835 71.3891L362.065 36.3369L362.775 36.3369Z" fill="white"/>
<path opacity="0.9" d="M370.654 36.3385L331.423 71.3907L331.191 71.3907L370.422 36.3385L370.654 36.3385Z" fill="#A0A0A0"/>
<path opacity="0.9" d="M379.009 36.3385L339.778 71.3907L339.546 71.3907L378.777 36.3385L379.009 36.3385Z" fill="#A0A0A0"/>
<path opacity="0.9" d="M383.662 36.3369L344.54 71.3891L343.721 71.3891L382.952 36.3369L383.662 36.3369Z" fill="white"/>
<path opacity="0.9" d="M387.83 36.3385L348.599 71.3907L348.367 71.3907L387.598 36.3385L387.83 36.3385Z" fill="#A0A0A0"/>
<path opacity="0.9" d="M397.58 36.3385L358.349 71.3907L358.117 71.3907L397.348 36.3385L397.58 36.3385Z" fill="#A0A0A0"/>
<path opacity="0.9" d="M406.869 36.3385L367.638 71.3907L367.406 71.3907L406.637 36.3385L406.869 36.3385Z" fill="#A0A0A0"/>
</g>
<g opacity="0.9">
<path opacity="0.9" d="M407.786 38.7656L407.747 38.995H367.486L340.715 38.9978L340.728 38.9231L340.755 38.7684L367.527 38.7656H407.786Z" fill="#919191"/>
<path opacity="0.9" d="M334.648 44.3337L361.42 44.3309H388.159H388.191H401.676L401.716 44.1016H388.231H388.2H361.461L334.689 44.1043L334.648 44.3337Z" fill="#919191"/>
<path opacity="0.9" d="M398.628 46.8287L398.041 47.4207L358.139 47.0581L331.484 47.0608L332.115 46.4922H358.347L398.628 46.8287Z" fill="white"/>
<path opacity="0.9" d="M383.651 60.1875L383.609 60.4169H343.355L316.586 60.4196V60.4086L316.625 60.1875H343.396H383.651Z" fill="#919191"/>
<path opacity="0.9" d="M392.898 51.9766L392.857 52.2087H325.836L325.876 51.9766H392.898Z" fill="#919191"/>
<path opacity="0.9" d="M378.109 65.3359L378.068 65.5681H311.047L311.087 65.3359H378.109Z" fill="#919191"/>
<path opacity="0.9" d="M386.558 57.5006L385.971 58.0926L346.069 57.73L319.414 57.7327L320.045 57.1641H346.276L386.558 57.5006Z" fill="white"/>
</g>
<path opacity="0.2" d="M444.926 151.457L430.533 112.188H420.897C420.322 112.188 419.855 112.654 419.855 113.229V157.686H444.926V151.457Z" fill="white"/>
<path d="M410.387 37.8127V36.25L371.06 71.1493H304.387L303.866 72.4515H371.581L372.102 72.1911L410.387 37.8127Z" fill="black"/>
<path d="M137.746 188.283L231.378 105.422L325.01 188.283V328.311H137.746V188.283Z" fill="url(#paint42_linear_512_547)"/>
<rect x="325.008" y="188.555" width="158.946" height="139.763" fill="url(#paint43_linear_512_547)"/>
<path d="M231.375 105.422H390.321L483.952 188.549H325.007L231.375 105.422Z" fill="url(#paint44_linear_512_547)"/>
<path d="M264.719 116.383H381.413L450.155 177.586H333.461L264.719 116.383Z" fill="#2F3235"/>
<path d="M264.719 116.383H381.413L450.155 177.586H333.461L264.719 116.383Z" fill="url(#paint45_linear_512_547)" fill-opacity="0.2"/>
<path d="M204.59 250.599C204.59 249.595 205.404 248.781 206.407 248.781H246.511C247.515 248.781 248.328 249.595 248.328 250.599V328.158H204.59V250.599Z" fill="#0022AA"/>
<path d="M209.448 281.188H207.828V294.957H209.448V281.188Z" fill="white"/>
<rect x="154.188" y="233.398" width="36.5392" height="52.9819" rx="1.81749" fill="#FFE344"/>
<rect x="154.188" y="233.398" width="36.5392" height="52.9819" rx="1.81749" fill="url(#paint46_linear_512_547)"/>
<rect x="262.891" y="233.398" width="36.5392" height="52.9819" rx="1.81749" fill="#FFE344"/>
<rect x="262.891" y="233.398" width="36.5392" height="52.9819" rx="1.81749" fill="url(#paint47_linear_512_547)"/>
<rect x="414.371" y="233.398" width="52.6481" height="53.458" rx="1.81749" fill="#FFE344"/>
<rect x="414.371" y="233.398" width="52.6481" height="53.458" rx="1.81749" fill="url(#paint48_linear_512_547)"/>
<path d="M173.4 328.744L108.017 328.533C108.017 328.533 105.154 327.901 105.903 325.321C106.432 323.497 108.292 324.076 108.292 324.076C108.292 324.076 107.671 319.064 111.094 317.446C111.094 317.446 108.631 316.639 109.787 314.023C110.943 311.406 113.397 311.656 113.397 311.656C113.397 311.656 111.386 309.29 112.215 307.672C113.044 306.054 114.362 306.458 114.362 306.458C114.362 306.458 114.638 302.303 118.065 300.077C122.036 297.503 126.966 298.863 126.966 298.863C126.966 298.863 127.786 295.121 131.698 296.403C131.698 296.403 134.345 290.152 141.884 291.733C149.423 293.314 152.101 299.104 152.101 299.104C152.101 299.104 153.467 297.716 156.66 298.99C158.986 299.918 160.191 302.18 160.191 302.18C160.191 302.18 162.879 301.5 164.732 305.144C166.585 308.788 166.405 314.087 166.405 314.087C166.405 314.087 169.833 314.639 170.28 317.363C170.727 320.088 170.626 321.537 170.626 321.537C170.626 321.537 171.71 319.349 173.506 319.965C175.302 320.581 175.558 322.925 174.26 326.584C173.554 328.579 173.4 328.744 173.4 328.744Z" fill="#A4FAFF"/>
<path d="M320.951 328.577L263.963 328.75C263.963 328.75 261.544 325.073 265.004 322.352C267.164 320.651 268.82 321.267 268.82 321.267C268.82 321.267 268.953 313.675 272.898 311.421C276.843 309.167 281.962 311.377 281.962 311.377C281.962 311.377 284.279 306.027 287.6 308.948C287.6 308.948 286.983 299.343 293.152 298.494C300.823 297.438 302.779 309.772 302.779 309.772C302.779 309.772 308.52 303.618 313.796 308.036C323.047 315.784 320.953 327.209 320.953 327.209L320.951 328.577Z" fill="#A4FAFF"/>
<path d="M321.075 328.601L401.71 328.346C401.71 328.346 405.242 327.564 404.319 324.384C403.666 322.133 401.363 322.848 401.363 322.848C401.363 322.848 402.131 316.667 397.909 314.67C397.909 314.67 400.946 313.677 399.521 310.441C398.096 307.205 395.068 307.523 395.068 307.523C395.068 307.523 397.548 304.604 396.526 302.609C395.504 300.614 393.877 301.112 393.877 301.112C393.877 301.112 393.537 295.988 389.311 293.243C384.415 290.062 378.333 291.744 378.333 291.744C378.333 291.744 377.323 287.131 372.5 288.712C372.5 288.712 369.235 280.99 359.937 282.952C350.638 284.914 347.335 292.042 347.335 292.042C347.335 292.042 345.651 290.33 341.713 291.902C338.844 293.048 337.357 295.837 337.357 295.837C337.357 295.837 334.048 294.997 331.759 299.49C329.47 303.984 329.695 310.522 329.695 310.522C329.695 310.522 325.466 311.206 324.915 314.567C324.363 317.928 324.487 319.715 324.487 319.715C324.487 319.715 323.15 317.018 320.935 317.777C318.72 318.537 318.405 321.429 320.016 325.934C320.885 328.397 321.075 328.601 321.075 328.601Z" fill="#A4FAFF"/>
<path d="M345.355 297.094C345.355 297.094 349.511 300.173 346.478 304.413C346.478 304.413 343.721 302.258 344.211 299.449C344.352 298.569 344.75 297.749 345.355 297.094V297.094Z" fill="url(#paint49_linear_512_547)"/>
<path d="M395.353 292.892C395.353 292.892 396.203 298.202 390.191 298.421C390.191 298.421 389.721 294.828 392.451 293.457C393.349 293.008 394.352 292.813 395.353 292.892V292.892Z" fill="url(#paint50_linear_512_547)"/>
<path d="M386.718 310.695C386.718 310.695 392.049 311.451 390.475 317.259C390.475 317.259 386.905 316.649 386.401 313.635C386.237 312.645 386.347 311.628 386.718 310.695V310.695Z" fill="url(#paint51_linear_512_547)"/>
<path d="M376.844 294.258C376.844 294.258 379.151 297.751 375.088 299.908C375.088 299.908 373.601 297.505 375.033 295.622C375.499 295.008 376.125 294.536 376.844 294.258V294.258Z" fill="url(#paint52_linear_512_547)"/>
<path d="M329.703 295.172C329.703 295.172 335.708 295.356 335.218 301.69C335.218 301.69 331.173 301.458 329.975 298.325C329.585 297.322 329.491 296.227 329.703 295.172V295.172Z" fill="url(#paint53_linear_512_547)"/>
<path d="M395.15 305.477C395.15 305.477 399.01 306.133 398.185 310.165C398.185 310.165 395.582 309.654 395.06 307.53C394.892 306.851 394.923 306.138 395.15 305.477V305.477Z" fill="url(#paint54_linear_512_547)"/>
<path d="M146.482 324.264C146.482 324.264 147.171 328.568 142.296 328.746C142.296 328.746 141.916 325.834 144.135 324.721C144.861 324.359 145.673 324.2 146.482 324.264V324.264Z" fill="url(#paint55_linear_512_547)"/>
<path d="M160.681 315.656C160.681 315.656 164.996 316.269 163.728 320.988C163.728 320.988 160.832 320.494 160.419 318.046C160.286 317.241 160.377 316.414 160.681 315.656V315.656Z" fill="url(#paint56_linear_512_547)"/>
<path d="M164.167 311C164.167 311 166.036 313.837 162.744 315.58C162.744 315.58 161.536 313.633 162.698 312.107C163.075 311.609 163.584 311.226 164.167 311V311Z" fill="url(#paint57_linear_512_547)"/>
<path d="M176.387 317.561C176.387 317.561 176.203 320.74 172.877 320.424C172.877 320.424 173.061 318.28 174.716 317.679C175.25 317.48 175.83 317.439 176.387 317.561V317.561Z" fill="url(#paint58_linear_512_547)"/>
<path d="M114.454 303.086C114.454 303.086 119.323 303.231 118.926 308.37C118.926 308.37 115.641 308.186 114.674 305.642C114.359 304.828 114.282 303.941 114.454 303.086Z" fill="url(#paint59_linear_512_547)"/>
<path d="M319.387 309.852C319.387 309.852 321.199 313.334 317.479 315.101C317.479 315.101 316.319 312.711 317.701 311.025C318.139 310.481 318.724 310.074 319.387 309.852V309.852Z" fill="url(#paint60_linear_512_547)"/>
<path d="M282.198 305.945C282.198 305.945 286.07 306.6 285.233 310.634C285.233 310.634 282.632 310.121 282.108 307.997C281.941 307.319 281.973 306.607 282.198 305.945V305.945Z" fill="url(#paint61_linear_512_547)"/>
<path d="M270.02 315.289C270.02 315.289 272.122 318.599 268.564 320.68C268.564 320.68 267.206 318.404 268.441 316.602C268.831 316.022 269.379 315.566 270.02 315.289V315.289Z" fill="url(#paint62_linear_512_547)"/>
<g opacity="0.9">
<path opacity="0.9" d="M369.011 116.47L437.454 177.622L437.859 177.622L369.416 116.47L369.011 116.47Z" fill="#A0A0A0"/>
<path opacity="0.9" d="M356.054 116.47L424.497 177.622L424.902 177.622L356.459 116.47L356.054 116.47Z" fill="#A0A0A0"/>
<path opacity="0.9" d="M347.93 116.47L416.183 177.623L417.611 177.623L349.168 116.47L347.93 116.47Z" fill="white"/>
<path opacity="0.9" d="M334.183 116.47L402.626 177.622L403.031 177.622L334.588 116.47L334.183 116.47Z" fill="#A0A0A0"/>
<path opacity="0.9" d="M319.604 116.47L388.047 177.622L388.452 177.622L320.009 116.47L319.604 116.47Z" fill="#A0A0A0"/>
<path opacity="0.9" d="M311.481 116.47L379.733 177.623L381.162 177.623L312.719 116.47L311.481 116.47Z" fill="white"/>
<path opacity="0.9" d="M304.218 116.47L372.661 177.622L373.066 177.622L304.623 116.47L304.218 116.47Z" fill="#A0A0A0"/>
<path opacity="0.9" d="M287.206 116.47L355.649 177.622L356.054 177.622L287.611 116.47L287.206 116.47Z" fill="#A0A0A0"/>
<path opacity="0.9" d="M271.007 116.47L339.45 177.622L339.855 177.622L271.412 116.47L271.007 116.47Z" fill="#A0A0A0"/>
</g>
<g opacity="0.9">
<path opacity="0.9" d="M269.392 120.703L269.461 121.103H339.7L386.406 121.108L386.383 120.978L386.336 120.708L339.629 120.703H269.392Z" fill="#919191"/>
<path opacity="0.9" d="M396.992 130.421L350.286 130.416H303.636H303.582H280.054L279.984 130.016H303.51H303.566H350.215L396.921 130.02L396.992 130.421Z" fill="#919191"/>
<path opacity="0.9" d="M285.375 134.767L286.399 135.8L356.013 135.167L402.516 135.172L401.415 134.18H355.651L285.375 134.767Z" fill="white"/>
<path opacity="0.9" d="M311.505 158.078L311.578 158.478H381.805L428.508 158.483V158.464L428.44 158.078H381.735H311.505Z" fill="#919191"/>
<path opacity="0.9" d="M295.374 143.75L295.444 144.155H412.371L412.301 143.75H295.374Z" fill="#919191"/>
<path opacity="0.9" d="M321.171 167.055L321.241 167.46H438.168L438.098 167.055H321.171Z" fill="#919191"/>
<path opacity="0.9" d="M306.433 153.392L307.457 154.425L377.072 153.792L423.574 153.797L422.473 152.805H376.71L306.433 153.392Z" fill="white"/>
</g>
<path opacity="0.2" d="M204.59 317.291L229.699 248.781H246.511C247.515 248.781 248.328 249.595 248.328 250.599V328.158H204.59V317.291Z" fill="white"/>
<path d="M264.844 119.054V116.328L333.454 177.214H449.774L450.683 179.486H332.545L331.637 179.032L264.844 119.054Z" fill="black"/>
<defs>
<linearGradient id="paint0_linear_512_547" x1="153.865" y1="88.1641" x2="-30.8262" y2="105.567" gradientUnits="userSpaceOnUse">
<stop stop-color="#C9F0F2"/>
<stop offset="1" stop-color="#B6BFDC"/>
</linearGradient>
<linearGradient id="paint1_linear_512_547" x1="266.509" y1="145.398" x2="110.887" y2="165.248" gradientUnits="userSpaceOnUse">
<stop stop-color="#B6BFDC"/>
<stop offset="1" stop-color="#C9F0F2"/>
</linearGradient>
<linearGradient id="paint2_linear_512_547" x1="255.901" y1="88.1641" x2="30.7305" y2="164.898" gradientUnits="userSpaceOnUse">
<stop stop-color="#C9F0F2"/>
<stop offset="1" stop-color="#B6BFDC"/>
</linearGradient>
<linearGradient id="paint3_linear_512_547" x1="250.972" y1="133.214" x2="171.507" y2="102.867" gradientUnits="userSpaceOnUse">
<stop stop-color="white" stop-opacity="0"/>
<stop offset="1" stop-color="white"/>
</linearGradient>
<linearGradient id="paint4_linear_512_547" x1="74.7846" y1="214.554" x2="56.5644" y2="175.975" gradientUnits="userSpaceOnUse">
<stop offset="0.12" stop-color="#F6F2E0"/>
<stop offset="1" stop-color="#D7B781"/>
</linearGradient>
<linearGradient id="paint5_linear_512_547" x1="149.632" y1="214.554" x2="131.412" y2="175.975" gradientUnits="userSpaceOnUse">
<stop offset="0.12" stop-color="#F6F2E0"/>
<stop offset="1" stop-color="#D7B781"/>
</linearGradient>
<linearGradient id="paint6_linear_512_547" x1="261.565" y1="214.898" x2="247.372" y2="171.984" gradientUnits="userSpaceOnUse">
<stop offset="0.12" stop-color="#F6F2E0"/>
<stop offset="1" stop-color="#D7B781"/>
</linearGradient>
<linearGradient id="paint7_linear_512_547" x1="-2009.98" y1="7363.72" x2="-1136.67" y2="8313.46" gradientUnits="userSpaceOnUse">
<stop offset="0.24" stop-color="#00DFED"/>
<stop offset="1" stop-color="#CCF9FB"/>
</linearGradient>
<linearGradient id="paint8_linear_512_547" x1="-2320.46" y1="5259.06" x2="-1818.43" y2="6357.67" gradientUnits="userSpaceOnUse">
<stop offset="0.24" stop-color="#00DFED"/>
<stop offset="1" stop-color="#CCF9FB"/>
</linearGradient>
<linearGradient id="paint9_linear_512_547" x1="-2106.91" y1="6305.38" x2="-1394.28" y2="7422.67" gradientUnits="userSpaceOnUse">
<stop offset="0.24" stop-color="#00DFED"/>
<stop offset="1" stop-color="#CCF9FB"/>
</linearGradient>
<linearGradient id="paint10_linear_512_547" x1="-1458.24" y1="5488.88" x2="-800.159" y2="6322.17" gradientUnits="userSpaceOnUse">
<stop offset="0.24" stop-color="#00DFED"/>
<stop offset="1" stop-color="#CCF9FB"/>
</linearGradient>
<linearGradient id="paint11_linear_512_547" x1="-3665.29" y1="6691.13" x2="-3043.07" y2="7942.57" gradientUnits="userSpaceOnUse">
<stop offset="0.24" stop-color="#00DFED"/>
<stop offset="1" stop-color="#CCF9FB"/>
</linearGradient>
<linearGradient id="paint12_linear_512_547" x1="-1416.03" y1="4497.23" x2="-919.128" y2="5319.73" gradientUnits="userSpaceOnUse">
<stop offset="0.24" stop-color="#00DFED"/>
<stop offset="1" stop-color="#CCF9FB"/>
</linearGradient>
<linearGradient id="paint13_linear_512_547" x1="-4314.76" y1="5083.83" x2="-5486.73" y2="5544.01" gradientUnits="userSpaceOnUse">
<stop offset="0.24" stop-color="#00DFED"/>
<stop offset="1" stop-color="#CCF9FB"/>
</linearGradient>
<linearGradient id="paint14_linear_512_547" x1="-3645.01" y1="5966.3" x2="-4708.88" y2="6265.21" gradientUnits="userSpaceOnUse">
<stop offset="0.24" stop-color="#00DFED"/>
<stop offset="1" stop-color="#CCF9FB"/>
</linearGradient>
<linearGradient id="paint15_linear_512_547" x1="-2527.24" y1="5088.52" x2="-3285.54" y2="5260.85" gradientUnits="userSpaceOnUse">
<stop offset="0.24" stop-color="#00DFED"/>
<stop offset="1" stop-color="#CCF9FB"/>
</linearGradient>
<linearGradient id="paint16_linear_512_547" x1="-3514.4" y1="3465.31" x2="-4413.34" y2="3909.53" gradientUnits="userSpaceOnUse">
<stop offset="0.24" stop-color="#00DFED"/>
<stop offset="1" stop-color="#CCF9FB"/>
</linearGradient>
<linearGradient id="paint17_linear_512_547" x1="-4880.46" y1="5374.24" x2="-6173.26" y2="5840.8" gradientUnits="userSpaceOnUse">
<stop offset="0.24" stop-color="#00DFED"/>
<stop offset="1" stop-color="#CCF9FB"/>
</linearGradient>
<linearGradient id="paint18_linear_512_547" x1="-1786.11" y1="6561.58" x2="-1695.09" y2="6342.69" gradientUnits="userSpaceOnUse">
<stop offset="0.6" stop-color="#00DFED"/>
</linearGradient>
<linearGradient id="paint19_linear_512_547" x1="-2615.47" y1="5749.82" x2="-2550.4" y2="5540.79" gradientUnits="userSpaceOnUse">
<stop offset="0.24" stop-color="#00DFED"/>
</linearGradient>
<linearGradient id="paint20_linear_512_547" x1="-2220.88" y1="6531.16" x2="-2123.5" y2="6310.48" gradientUnits="userSpaceOnUse">
<stop offset="0.24" stop-color="#00DFED"/>
</linearGradient>
<linearGradient id="paint21_linear_512_547" x1="393.568" y1="30.0078" x2="547.318" y2="44.4957" gradientUnits="userSpaceOnUse">
<stop stop-color="#C9F0F2"/>
<stop offset="1" stop-color="#B6BFDC"/>
</linearGradient>
<linearGradient id="paint22_linear_512_547" x1="76.114" y1="1.86325e-06" x2="-53.4376" y2="16.5243" gradientUnits="userSpaceOnUse">
<stop stop-color="#B6BFDC"/>
<stop offset="1" stop-color="#C9F0F2"/>
</linearGradient>
<linearGradient id="paint23_linear_512_547" x1="308.627" y1="30.0078" x2="496.075" y2="93.8869" gradientUnits="userSpaceOnUse">
<stop stop-color="#C9F0F2"/>
<stop offset="1" stop-color="#B6BFDC"/>
</linearGradient>
<linearGradient id="paint24_linear_512_547" x1="312.724" y1="67.5096" x2="378.876" y2="42.2467" gradientUnits="userSpaceOnUse">
<stop stop-color="white" stop-opacity="0"/>
<stop offset="1" stop-color="white"/>
</linearGradient>
<linearGradient id="paint25_linear_512_547" x1="14.4182" y1="31.8608" x2="-0.749567" y2="-0.255067" gradientUnits="userSpaceOnUse">
<stop offset="0.12" stop-color="#F6F2E0"/>
<stop offset="1" stop-color="#D7B781"/>
</linearGradient>
<linearGradient id="paint26_linear_512_547" x1="14.4182" y1="31.8608" x2="-0.749567" y2="-0.255067" gradientUnits="userSpaceOnUse">
<stop offset="0.12" stop-color="#F6F2E0"/>
<stop offset="1" stop-color="#D7B781"/>
</linearGradient>
<linearGradient id="paint27_linear_512_547" x1="20.7747" y1="32.1471" x2="8.95964" y2="-3.57772" gradientUnits="userSpaceOnUse">
<stop offset="0.12" stop-color="#F6F2E0"/>
<stop offset="1" stop-color="#D7B781"/>
</linearGradient>
<linearGradient id="paint28_linear_512_547" x1="2194.91" y1="6086.71" x2="1467.91" y2="6877.35" gradientUnits="userSpaceOnUse">
<stop offset="0.24" stop-color="#00DFED"/>
<stop offset="1" stop-color="#CCF9FB"/>
</linearGradient>
<linearGradient id="paint29_linear_512_547" x1="2453.37" y1="4334.65" x2="2035.45" y2="5249.21" gradientUnits="userSpaceOnUse">
<stop offset="0.24" stop-color="#00DFED"/>
<stop offset="1" stop-color="#CCF9FB"/>
</linearGradient>
<linearGradient id="paint30_linear_512_547" x1="2275.6" y1="5205.68" x2="1682.36" y2="6135.8" gradientUnits="userSpaceOnUse">
<stop offset="0.24" stop-color="#00DFED"/>
<stop offset="1" stop-color="#CCF9FB"/>
</linearGradient>
<linearGradient id="paint31_linear_512_547" x1="1735.6" y1="4525.96" x2="1187.77" y2="5219.66" gradientUnits="userSpaceOnUse">
<stop offset="0.24" stop-color="#00DFED"/>
<stop offset="1" stop-color="#CCF9FB"/>
</linearGradient>
<linearGradient id="paint32_linear_512_547" x1="3572.91" y1="5526.8" x2="3054.93" y2="6568.59" gradientUnits="userSpaceOnUse">
<stop offset="0.24" stop-color="#00DFED"/>
<stop offset="1" stop-color="#CCF9FB"/>
</linearGradient>
<linearGradient id="paint33_linear_512_547" x1="1700.46" y1="3700.44" x2="1286.81" y2="4385.15" gradientUnits="userSpaceOnUse">
<stop offset="0.24" stop-color="#00DFED"/>
<stop offset="1" stop-color="#CCF9FB"/>
</linearGradient>
<linearGradient id="paint34_linear_512_547" x1="4113.58" y1="4188.76" x2="5089.21" y2="4571.84" gradientUnits="userSpaceOnUse">
<stop offset="0.24" stop-color="#00DFED"/>
<stop offset="1" stop-color="#CCF9FB"/>
</linearGradient>
<linearGradient id="paint35_linear_512_547" x1="3556.03" y1="4923.39" x2="4441.67" y2="5172.23" gradientUnits="userSpaceOnUse">
<stop offset="0.24" stop-color="#00DFED"/>
<stop offset="1" stop-color="#CCF9FB"/>
</linearGradient>
<linearGradient id="paint36_linear_512_547" x1="2625.51" y1="4192.67" x2="3256.78" y2="4336.13" gradientUnits="userSpaceOnUse">
<stop offset="0.24" stop-color="#00DFED"/>
<stop offset="1" stop-color="#CCF9FB"/>
</linearGradient>
<linearGradient id="paint37_linear_512_547" x1="3447.3" y1="2841.39" x2="4195.64" y2="3211.19" gradientUnits="userSpaceOnUse">
<stop offset="0.24" stop-color="#00DFED"/>
<stop offset="1" stop-color="#CCF9FB"/>
</linearGradient>
<linearGradient id="paint38_linear_512_547" x1="4584.52" y1="4430.52" x2="5660.73" y2="4818.92" gradientUnits="userSpaceOnUse">
<stop offset="0.24" stop-color="#00DFED"/>
<stop offset="1" stop-color="#CCF9FB"/>
</linearGradient>
<linearGradient id="paint39_linear_512_547" x1="2008.55" y1="5418.96" x2="1932.78" y2="5236.74" gradientUnits="userSpaceOnUse">
<stop offset="0.6" stop-color="#00DFED"/>
</linearGradient>
<linearGradient id="paint40_linear_512_547" x1="2698.97" y1="4743.18" x2="2644.8" y2="4569.17" gradientUnits="userSpaceOnUse">
<stop offset="0.24" stop-color="#00DFED"/>
</linearGradient>
<linearGradient id="paint41_linear_512_547" x1="2370.48" y1="5393.63" x2="2289.41" y2="5209.92" gradientUnits="userSpaceOnUse">
<stop offset="0.24" stop-color="#00DFED"/>
</linearGradient>
<linearGradient id="paint42_linear_512_547" x1="302.173" y1="136.937" x2="23.561" y2="477.208" gradientUnits="userSpaceOnUse">
<stop stop-color="#00DFED"/>
<stop offset="1" stop-color="#0034ED"/>
</linearGradient>
<linearGradient id="paint43_linear_512_547" x1="512.271" y1="194.492" x2="268.829" y2="396.828" gradientUnits="userSpaceOnUse">
<stop stop-color="#00DFED"/>
<stop offset="1" stop-color="#0034ED"/>
</linearGradient>
<linearGradient id="paint44_linear_512_547" x1="442.389" y1="105.422" x2="115.363" y2="216.867" gradientUnits="userSpaceOnUse">
<stop stop-color="#00DFED"/>
<stop offset="1" stop-color="#0034ED"/>
</linearGradient>
<linearGradient id="paint45_linear_512_547" x1="435.233" y1="170.851" x2="319.822" y2="126.777" gradientUnits="userSpaceOnUse">
<stop stop-color="white" stop-opacity="0"/>
<stop offset="1" stop-color="white"/>
</linearGradient>
<linearGradient id="paint46_linear_512_547" x1="179.342" y1="288.983" x2="152.88" y2="232.953" gradientUnits="userSpaceOnUse">
<stop offset="0.12" stop-color="#FFE344"/>
<stop offset="1" stop-color="#F6A623"/>
</linearGradient>
<linearGradient id="paint47_linear_512_547" x1="288.045" y1="288.983" x2="261.583" y2="232.953" gradientUnits="userSpaceOnUse">
<stop offset="0.12" stop-color="#FFE344"/>
<stop offset="1" stop-color="#F6A623"/>
</linearGradient>
<linearGradient id="paint48_linear_512_547" x1="450.615" y1="289.483" x2="430.002" y2="227.157" gradientUnits="userSpaceOnUse">
<stop offset="0.12" stop-color="#FFE344"/>
<stop offset="1" stop-color="#F6A623"/>
</linearGradient>
<linearGradient id="paint49_linear_512_547" x1="-2848.46" y1="10672.1" x2="-1580.11" y2="12051.4" gradientUnits="userSpaceOnUse">
<stop offset="0.24" stop-color="#00DFED"/>
<stop offset="1" stop-color="#CCF9FB"/>
</linearGradient>
<linearGradient id="paint50_linear_512_547" x1="-3299.38" y1="7615.38" x2="-2570.26" y2="9210.94" gradientUnits="userSpaceOnUse">
<stop offset="0.24" stop-color="#00DFED"/>
<stop offset="1" stop-color="#CCF9FB"/>
</linearGradient>
<linearGradient id="paint51_linear_512_547" x1="-2989.23" y1="9135" x2="-1954.25" y2="10757.7" gradientUnits="userSpaceOnUse">
<stop offset="0.24" stop-color="#00DFED"/>
<stop offset="1" stop-color="#CCF9FB"/>
</linearGradient>
<linearGradient id="paint52_linear_512_547" x1="-2047.13" y1="7949.15" x2="-1091.37" y2="9159.38" gradientUnits="userSpaceOnUse">
<stop offset="0.24" stop-color="#00DFED"/>
<stop offset="1" stop-color="#CCF9FB"/>
</linearGradient>
<linearGradient id="paint53_linear_512_547" x1="-5252.54" y1="9695.23" x2="-4348.85" y2="11512.8" gradientUnits="userSpaceOnUse">
<stop offset="0.24" stop-color="#00DFED"/>
<stop offset="1" stop-color="#CCF9FB"/>
</linearGradient>
<linearGradient id="paint54_linear_512_547" x1="-1985.83" y1="6508.95" x2="-1264.16" y2="7703.5" gradientUnits="userSpaceOnUse">
<stop offset="0.24" stop-color="#00DFED"/>
<stop offset="1" stop-color="#CCF9FB"/>
</linearGradient>
<linearGradient id="paint55_linear_512_547" x1="-6195.8" y1="7360.87" x2="-7897.91" y2="8029.19" gradientUnits="userSpaceOnUse">
<stop offset="0.24" stop-color="#00DFED"/>
<stop offset="1" stop-color="#CCF9FB"/>
</linearGradient>
<linearGradient id="paint56_linear_512_547" x1="-5223.1" y1="8642.52" x2="-6768.21" y2="9076.65" gradientUnits="userSpaceOnUse">
<stop offset="0.24" stop-color="#00DFED"/>
<stop offset="1" stop-color="#CCF9FB"/>
</linearGradient>
<linearGradient id="paint57_linear_512_547" x1="-3599.7" y1="7367.68" x2="-4701.02" y2="7617.96" gradientUnits="userSpaceOnUse">
<stop offset="0.24" stop-color="#00DFED"/>
<stop offset="1" stop-color="#CCF9FB"/>
</linearGradient>
<linearGradient id="paint58_linear_512_547" x1="-5033.4" y1="5010.21" x2="-6338.97" y2="5655.37" gradientUnits="userSpaceOnUse">
<stop offset="0.24" stop-color="#00DFED"/>
<stop offset="1" stop-color="#CCF9FB"/>
</linearGradient>
<linearGradient id="paint59_linear_512_547" x1="-7017.4" y1="7782.64" x2="-8894.99" y2="8460.25" gradientUnits="userSpaceOnUse">
<stop offset="0.24" stop-color="#00DFED"/>
<stop offset="1" stop-color="#CCF9FB"/>
</linearGradient>
<linearGradient id="paint60_linear_512_547" x1="-2523.31" y1="9507.08" x2="-2391.13" y2="9189.18" gradientUnits="userSpaceOnUse">
<stop offset="0.6" stop-color="#00DFED"/>
</linearGradient>
<linearGradient id="paint61_linear_512_547" x1="-3727.84" y1="8328.12" x2="-3633.33" y2="8024.53" gradientUnits="userSpaceOnUse">
<stop offset="0.24" stop-color="#00DFED"/>
</linearGradient>
<linearGradient id="paint62_linear_512_547" x1="-3154.76" y1="9462.91" x2="-3013.32" y2="9142.4" gradientUnits="userSpaceOnUse">
<stop offset="0.24" stop-color="#00DFED"/>
</linearGradient>
</defs>
</svg>
