<svg width="417" height="246" viewBox="0 0 417 246" fill="none" xmlns="http://www.w3.org/2000/svg">
<path d="M35.6406 91.1822L138.674 0L241.708 91.1822V245.271H35.6406V91.1822Z" fill="url(#paint0_linear_485_1085)"/>
<rect x="241.707" y="91.4766" width="174.906" height="153.797" fill="url(#paint1_linear_485_1085)"/>
<path d="M138.672 0H313.578L416.612 91.474H241.706L138.672 0Z" fill="url(#paint2_linear_485_1085)"/>
<path d="M175.363 12.0625H303.775L379.421 79.4115H251.008L175.363 12.0625Z" fill="#2F3235"/>
<path d="M109.195 159.758C109.195 158.653 110.091 157.758 111.195 157.758H155.326C156.43 157.758 157.326 158.653 157.326 159.758V245.106H109.195V159.758Z" fill="#0022AA"/>
<path d="M114.544 193.414H112.762V208.566H114.544V193.414Z" fill="white"/>
<rect x="53.7344" y="140.828" width="40.2083" height="58.3021" rx="2" fill="#FFE344"/>
<rect x="53.7344" y="140.828" width="40.2083" height="58.3021" rx="2" fill="url(#paint3_linear_485_1085)"/>
<rect x="173.352" y="140.828" width="40.2083" height="58.3021" rx="2" fill="#FFE344"/>
<rect x="173.352" y="140.828" width="40.2083" height="58.3021" rx="2" fill="url(#paint4_linear_485_1085)"/>
<rect x="340.043" y="140.828" width="57.9348" height="58.8261" rx="2" fill="#FFE344"/>
<rect x="340.043" y="140.828" width="57.9348" height="58.8261" rx="2" fill="url(#paint5_linear_485_1085)"/>
<path d="M74.8722 245.752L2.92356 245.52C2.92356 245.52 -0.226106 244.824 0.597216 241.985C1.17981 239.978 3.22699 240.615 3.22699 240.615C3.22699 240.615 2.54325 235.1 6.3099 233.319C6.3099 233.319 3.59918 232.431 4.87159 229.552C6.144 226.673 8.84455 226.948 8.84455 226.948C8.84455 226.948 6.63151 224.344 7.54384 222.564C8.45617 220.783 9.90658 221.229 9.90658 221.229C9.90658 221.229 10.21 216.656 13.9807 214.206C18.3502 211.373 23.7756 212.87 23.7756 212.87C23.7756 212.87 24.6778 208.753 28.9826 210.163C28.9826 210.163 31.8956 203.284 40.1915 205.024C48.4874 206.764 51.4348 213.135 51.4348 213.135C51.4348 213.135 52.9378 211.608 56.4516 213.01C59.0106 214.032 60.3376 216.52 60.3376 216.52C60.3376 216.52 63.2951 215.772 65.3342 219.782C67.3733 223.792 67.175 229.623 67.175 229.623C67.175 229.623 70.9477 230.23 71.4393 233.228C71.9308 236.227 71.8196 237.821 71.8196 237.821C71.8196 237.821 73.0131 235.414 74.9895 236.091C76.9659 236.769 77.247 239.349 75.8189 243.375C75.0421 245.57 74.8722 245.752 74.8722 245.752Z" fill="#A4FAFF"/>
<path d="M237.239 245.566L174.529 245.756C174.529 245.756 171.867 241.709 175.674 238.715C178.051 236.843 179.874 237.521 179.874 237.521C179.874 237.521 180.019 229.167 184.36 226.687C188.701 224.206 194.335 226.638 194.335 226.638C194.335 226.638 196.884 220.75 200.54 223.965C200.54 223.965 199.86 213.396 206.649 212.461C215.09 211.3 217.243 224.872 217.243 224.872C217.243 224.872 223.56 218.1 229.366 222.962C239.545 231.488 237.241 244.06 237.241 244.06L237.239 245.566Z" fill="#A4FAFF"/>
<path d="M237.376 245.592L326.109 245.311C326.109 245.311 329.995 244.451 328.979 240.951C328.261 238.475 325.726 239.262 325.726 239.262C325.726 239.262 326.572 232.46 321.925 230.262C321.925 230.262 325.267 229.17 323.699 225.609C322.132 222.048 318.8 222.398 318.8 222.398C318.8 222.398 321.529 219.185 320.404 216.99C319.279 214.794 317.489 215.343 317.489 215.343C317.489 215.343 317.115 209.704 312.464 206.683C307.077 203.183 300.383 205.034 300.383 205.034C300.383 205.034 299.273 199.958 293.965 201.698C293.965 201.698 290.372 193.2 280.14 195.359C269.908 197.518 266.273 205.362 266.273 205.362C266.273 205.362 264.42 203.478 260.087 205.208C256.929 206.469 255.293 209.538 255.293 209.538C255.293 209.538 251.652 208.613 249.133 213.558C246.615 218.503 246.861 225.698 246.861 225.698C246.861 225.698 242.209 226.45 241.602 230.149C240.995 233.847 241.13 235.814 241.13 235.814C241.13 235.814 239.66 232.846 237.222 233.682C234.785 234.517 234.439 237.7 236.211 242.657C237.168 245.368 237.376 245.592 237.376 245.592Z" fill="#A4FAFF"/>
<path d="M264.092 210.914C264.092 210.914 268.665 214.303 265.328 218.969C265.328 218.969 262.293 216.597 262.833 213.506C262.989 212.537 263.426 211.635 264.092 210.914V210.914Z" fill="url(#paint6_linear_485_1085)"/>
<path d="M319.111 206.292C319.111 206.292 320.045 212.135 313.431 212.376C313.431 212.376 312.913 208.423 315.917 206.913C316.905 206.42 318.01 206.206 319.111 206.292V206.292Z" fill="url(#paint7_linear_485_1085)"/>
<path d="M309.608 225.883C309.608 225.883 315.474 226.714 313.743 233.106C313.743 233.106 309.814 232.434 309.26 229.118C309.079 228.028 309.2 226.909 309.608 225.883V225.883Z" fill="url(#paint8_linear_485_1085)"/>
<path d="M298.743 207.797C298.743 207.797 301.282 211.641 296.811 214.014C296.811 214.014 295.175 211.37 296.75 209.298C297.263 208.623 297.953 208.103 298.743 207.797V207.797Z" fill="url(#paint9_linear_485_1085)"/>
<path d="M246.869 208.805C246.869 208.805 253.477 209.007 252.937 215.977C252.937 215.977 248.487 215.722 247.168 212.275C246.739 211.17 246.636 209.966 246.869 208.805V208.805Z" fill="url(#paint10_linear_485_1085)"/>
<path d="M318.888 220.141C318.888 220.141 323.136 220.863 322.228 225.3C322.228 225.3 319.364 224.737 318.789 222.401C318.605 221.653 318.639 220.869 318.888 220.141V220.141Z" fill="url(#paint11_linear_485_1085)"/>
<path d="M45.2522 240.82C45.2522 240.82 46.0108 245.556 40.646 245.752C40.646 245.752 40.2273 242.548 42.6689 241.323C43.4683 240.924 44.3613 240.75 45.2522 240.82V240.82Z" fill="url(#paint12_linear_485_1085)"/>
<path d="M60.8795 231.352C60.8795 231.352 65.6272 232.025 64.2314 237.219C64.2314 237.219 61.0453 236.675 60.5902 233.982C60.4444 233.095 60.5444 232.185 60.8795 231.352V231.352Z" fill="url(#paint13_linear_485_1085)"/>
<path d="M64.7151 226.227C64.7151 226.227 66.7724 229.348 63.1494 231.267C63.1494 231.267 61.8204 229.124 63.0988 227.445C63.5143 226.897 64.0739 226.475 64.7151 226.227V226.227Z" fill="url(#paint14_linear_485_1085)"/>
<path d="M78.1602 233.443C78.1602 233.443 77.9578 236.942 74.2984 236.594C74.2984 236.594 74.5007 234.234 76.3213 233.573C76.909 233.353 77.5475 233.308 78.1602 233.443V233.443Z" fill="url(#paint15_linear_485_1085)"/>
<path d="M10.006 217.516C10.006 217.516 15.3647 217.675 14.9278 223.33C14.9278 223.33 11.3129 223.128 10.2488 220.328C9.90204 219.433 9.81779 218.457 10.006 217.516Z" fill="url(#paint16_linear_485_1085)"/>
<path d="M235.518 224.961C235.518 224.961 237.513 228.793 233.418 230.737C233.418 230.737 232.142 228.107 233.663 226.252C234.146 225.653 234.789 225.205 235.518 224.961V224.961Z" fill="url(#paint17_linear_485_1085)"/>
<path d="M194.596 220.664C194.596 220.664 198.857 221.384 197.936 225.823C197.936 225.823 195.074 225.259 194.497 222.922C194.314 222.175 194.348 221.392 194.596 220.664V220.664Z" fill="url(#paint18_linear_485_1085)"/>
<path d="M181.193 230.945C181.193 230.945 183.505 234.587 179.591 236.877C179.591 236.877 178.096 234.373 179.455 232.39C179.884 231.752 180.487 231.25 181.193 230.945V230.945Z" fill="url(#paint19_linear_485_1085)"/>
<g opacity="0.9">
<path opacity="0.9" d="M296.815 12.0329L372.131 79.3264L372.576 79.3264L297.261 12.0329L296.815 12.0329Z" fill="#A0A0A0"/>
<path opacity="0.9" d="M290.131 12.1501L365.447 79.4435L365.893 79.4435L290.577 12.1501L290.131 12.1501Z" fill="#A0A0A0"/>
<path opacity="0.9" d="M283.002 12.1501L358.318 79.4435L358.764 79.4435L283.448 12.1501L283.002 12.1501Z" fill="#A0A0A0"/>
<path opacity="0.9" d="M275.87 12.1501L351.185 79.4435L351.631 79.4435L276.315 12.1501L275.87 12.1501Z" fill="#A0A0A0"/>
<path opacity="0.9" d="M266.934 12.1486L342.04 79.4421L343.612 79.4421L268.297 12.1486L266.934 12.1486Z" fill="white"/>
<path opacity="0.9" d="M259.827 12.1501L335.142 79.4435L335.588 79.4435L260.272 12.1501L259.827 12.1501Z" fill="#A0A0A0"/>
<path opacity="0.9" d="M251.807 12.1501L327.123 79.4435L327.569 79.4435L252.253 12.1501L251.807 12.1501Z" fill="#A0A0A0"/>
<path opacity="0.9" d="M243.784 12.1501L319.099 79.4435L319.545 79.4435L244.229 12.1501L243.784 12.1501Z" fill="#A0A0A0"/>
<path opacity="0.9" d="M235.764 12.1501L311.08 79.4435L311.526 79.4435L236.21 12.1501L235.764 12.1501Z" fill="#A0A0A0"/>
<path opacity="0.9" d="M226.824 12.1486L301.931 79.4421L303.503 79.4421L228.187 12.1486L226.824 12.1486Z" fill="white"/>
<path opacity="0.9" d="M218.827 12.1501L294.142 79.4435L294.588 79.4435L219.272 12.1501L218.827 12.1501Z" fill="#A0A0A0"/>
<path opacity="0.9" d="M209.916 12.1501L285.232 79.4435L285.678 79.4435L210.362 12.1501L209.916 12.1501Z" fill="#A0A0A0"/>
<path opacity="0.9" d="M200.112 12.1501L275.428 79.4435L275.873 79.4435L200.557 12.1501L200.112 12.1501Z" fill="#A0A0A0"/>
<path opacity="0.9" d="M191.198 12.1501L266.513 79.4435L266.959 79.4435L191.643 12.1501L191.198 12.1501Z" fill="#A0A0A0"/>
<path opacity="0.9" d="M182.284 12.1501L257.599 79.4435L258.045 79.4435L182.729 12.1501L182.284 12.1501Z" fill="#A0A0A0"/>
</g>
<g opacity="0.9">
<path opacity="0.9" d="M180.505 16.8047L180.581 17.245H257.874L309.27 17.2503L309.244 17.1071L309.192 16.81L257.795 16.8047H180.505Z" fill="#919191"/>
<path opacity="0.9" d="M314.613 22.2816L263.217 22.2763H211.879H211.823H185.931L185.852 21.8359H211.745H211.802H263.141L314.536 21.8412L314.613 22.2816Z" fill="#919191"/>
<path opacity="0.9" d="M320.918 27.5003L269.522 27.495H218.187H218.127H192.238L192.16 27.0547H218.049H218.11H269.444L320.839 27.06L320.918 27.5003Z" fill="#919191"/>
<path opacity="0.9" d="M198.092 32.2789L199.219 33.4154L275.824 32.7192L326.996 32.7245L325.784 31.6328H275.426L198.092 32.2789Z" fill="white"/>
<path opacity="0.9" d="M226.85 57.9297L226.93 58.37H304.209L355.602 58.3753V58.3541L355.527 57.9297H304.132H226.85Z" fill="#919191"/>
<path opacity="0.9" d="M203.782 37.2188L203.859 37.6591H281.135L332.531 37.6644L332.454 37.2241L281.059 37.2188H203.782Z" fill="#919191"/>
<path opacity="0.9" d="M232.169 62.8672L232.246 63.3075H309.522L360.918 63.3128L360.841 62.8725L309.446 62.8672H232.169Z" fill="#919191"/>
<path opacity="0.9" d="M209.098 42.1641L209.175 42.6097H337.844L337.766 42.1641H209.098Z" fill="#919191"/>
<path opacity="0.9" d="M237.485 67.8125L237.562 68.2582H366.23L366.153 67.8125H237.485Z" fill="#919191"/>
<path opacity="0.9" d="M215.171 47.6094L215.249 48.0498H292.519L343.914 48.055L343.837 47.6146L292.441 47.6094H215.171Z" fill="#919191"/>
<path opacity="0.9" d="M243.557 73.2578L243.636 73.6982H320.906L372.301 73.7035L372.223 73.2631L320.828 73.2578H243.557Z" fill="#919191"/>
<path opacity="0.9" d="M221.268 52.7789L222.395 53.9154L299 53.2192L350.172 53.2245L348.96 52.1328H298.602L221.268 52.7789Z" fill="white"/>
</g>
<path opacity="0.2" d="M109.195 233.147L136.826 157.758H155.326C156.43 157.758 157.326 158.653 157.326 159.758V245.106H109.195V233.147Z" fill="white"/>
<defs>
<linearGradient id="paint0_linear_485_1085" x1="216.578" y1="34.6797" x2="-90.0105" y2="409.12" gradientUnits="userSpaceOnUse">
<stop stop-color="#00DFED"/>
<stop offset="1" stop-color="#0034ED"/>
</linearGradient>
<linearGradient id="paint1_linear_485_1085" x1="447.775" y1="98.0104" x2="179.887" y2="320.664" gradientUnits="userSpaceOnUse">
<stop stop-color="#00DFED"/>
<stop offset="1" stop-color="#0034ED"/>
</linearGradient>
<linearGradient id="paint2_linear_485_1085" x1="370.875" y1="2.12754e-06" x2="11.0104" y2="122.635" gradientUnits="userSpaceOnUse">
<stop stop-color="#00DFED"/>
<stop offset="1" stop-color="#0034ED"/>
</linearGradient>
<linearGradient id="paint3_linear_485_1085" x1="81.4146" y1="201.995" x2="52.2953" y2="140.338" gradientUnits="userSpaceOnUse">
<stop offset="0.12" stop-color="#FFE344"/>
<stop offset="1" stop-color="#F6A623"/>
</linearGradient>
<linearGradient id="paint4_linear_485_1085" x1="201.032" y1="201.995" x2="171.913" y2="140.338" gradientUnits="userSpaceOnUse">
<stop offset="0.12" stop-color="#FFE344"/>
<stop offset="1" stop-color="#F6A623"/>
</linearGradient>
<linearGradient id="paint5_linear_485_1085" x1="379.926" y1="202.544" x2="357.244" y2="133.96" gradientUnits="userSpaceOnUse">
<stop offset="0.12" stop-color="#FFE344"/>
<stop offset="1" stop-color="#F6A623"/>
</linearGradient>
<linearGradient id="paint6_linear_485_1085" x1="-3250.43" y1="11627.7" x2="-1854.72" y2="13145.6" gradientUnits="userSpaceOnUse">
<stop offset="0.24" stop-color="#00DFED"/>
<stop offset="1" stop-color="#CCF9FB"/>
</linearGradient>
<linearGradient id="paint7_linear_485_1085" x1="-3746.63" y1="8264.08" x2="-2944.3" y2="10019.9" gradientUnits="userSpaceOnUse">
<stop offset="0.24" stop-color="#00DFED"/>
<stop offset="1" stop-color="#CCF9FB"/>
</linearGradient>
<linearGradient id="paint8_linear_485_1085" x1="-3405.34" y1="9936.29" x2="-2266.43" y2="11721.9" gradientUnits="userSpaceOnUse">
<stop offset="0.24" stop-color="#00DFED"/>
<stop offset="1" stop-color="#CCF9FB"/>
</linearGradient>
<linearGradient id="paint9_linear_485_1085" x1="-2368.64" y1="8631.36" x2="-1316.9" y2="9963.12" gradientUnits="userSpaceOnUse">
<stop offset="0.24" stop-color="#00DFED"/>
<stop offset="1" stop-color="#CCF9FB"/>
</linearGradient>
<linearGradient id="paint10_linear_485_1085" x1="-5895.92" y1="10552.8" x2="-4901.49" y2="12552.8" gradientUnits="userSpaceOnUse">
<stop offset="0.24" stop-color="#00DFED"/>
<stop offset="1" stop-color="#CCF9FB"/>
</linearGradient>
<linearGradient id="paint11_linear_485_1085" x1="-2301.18" y1="7046.54" x2="-1507.04" y2="8361.05" gradientUnits="userSpaceOnUse">
<stop offset="0.24" stop-color="#00DFED"/>
<stop offset="1" stop-color="#CCF9FB"/>
</linearGradient>
<linearGradient id="paint12_linear_485_1085" x1="-6933.9" y1="7984.01" x2="-8806.92" y2="8719.45" gradientUnits="userSpaceOnUse">
<stop offset="0.24" stop-color="#00DFED"/>
<stop offset="1" stop-color="#CCF9FB"/>
</linearGradient>
<linearGradient id="paint13_linear_485_1085" x1="-5863.52" y1="9394.37" x2="-7563.78" y2="9872.09" gradientUnits="userSpaceOnUse">
<stop offset="0.24" stop-color="#00DFED"/>
<stop offset="1" stop-color="#CCF9FB"/>
</linearGradient>
<linearGradient id="paint14_linear_485_1085" x1="-4077.1" y1="7991.51" x2="-5289.02" y2="8266.92" gradientUnits="userSpaceOnUse">
<stop offset="0.24" stop-color="#00DFED"/>
<stop offset="1" stop-color="#CCF9FB"/>
</linearGradient>
<linearGradient id="paint15_linear_485_1085" x1="-5654.77" y1="5397.31" x2="-7091.45" y2="6107.26" gradientUnits="userSpaceOnUse">
<stop offset="0.24" stop-color="#00DFED"/>
<stop offset="1" stop-color="#CCF9FB"/>
</linearGradient>
<linearGradient id="paint16_linear_485_1085" x1="-7838" y1="8448.14" x2="-9904.13" y2="9193.79" gradientUnits="userSpaceOnUse">
<stop offset="0.24" stop-color="#00DFED"/>
<stop offset="1" stop-color="#CCF9FB"/>
</linearGradient>
<linearGradient id="paint17_linear_485_1085" x1="-2892.64" y1="10345.7" x2="-2747.18" y2="9995.92" gradientUnits="userSpaceOnUse">
<stop offset="0.6" stop-color="#00DFED"/>
</linearGradient>
<linearGradient id="paint18_linear_485_1085" x1="-4218.12" y1="9048.4" x2="-4114.12" y2="8714.32" gradientUnits="userSpaceOnUse">
<stop offset="0.24" stop-color="#00DFED"/>
</linearGradient>
<linearGradient id="paint19_linear_485_1085" x1="-3587.49" y1="10297.1" x2="-3431.85" y2="9944.44" gradientUnits="userSpaceOnUse">
<stop offset="0.24" stop-color="#00DFED"/>
</linearGradient>
</defs>
</svg>
