<svg width="526" height="306" viewBox="0 0 526 306" fill="none" xmlns="http://www.w3.org/2000/svg">
<g clip-path="url(#clip0_482_908)">
<path d="M295.294 54.5L413.635 54.5L564.011 397.09H-102.043L295.294 54.5Z" fill="url(#paint0_linear_482_908)"/>
<path d="M349.335 78.3506L340.605 304.555L342.517 304.628L351.246 78.4244L349.335 78.3506Z" fill="url(#paint1_linear_482_908)"/>
<path d="M358.036 77.883L272.93 302.398L274.718 303.076L359.824 78.5609L358.036 77.883Z" fill="url(#paint2_linear_482_908)"/>
<path d="M70.6523 213.476L78.0875 160.995C78.611 157.331 80.438 153.979 83.2336 151.553C86.0291 149.127 89.6056 147.791 93.3068 147.789H355.153C359.313 147.787 363.332 149.303 366.455 152.052C369.578 154.801 371.591 158.594 372.117 162.721L379.352 213.486L70.6523 213.476Z" fill="url(#paint3_linear_482_908)"/>
<path d="M355.672 45.3359H353.281V75.6694H355.672V45.3359Z" fill="url(#paint4_linear_482_908)"/>
<path d="M413.767 0.445312H295.188V54.6477H413.767V0.445312Z" fill="white"/>
<path d="M359.852 71.5547H349.113V86.3198H359.852V71.5547Z" fill="url(#paint5_linear_482_908)"/>
<path d="M355.369 78.5981L353.586 79.2891L440.439 303.442L442.223 302.751L355.369 78.5981Z" fill="url(#paint6_linear_482_908)"/>
<path d="M354.48 80.9443C355.586 80.9443 356.483 80.0474 356.483 78.9409C356.483 77.8344 355.586 76.9375 354.48 76.9375C353.374 76.9375 352.477 77.8344 352.477 78.9409C352.477 80.0474 353.374 80.9443 354.48 80.9443Z" fill="#FFE344"/>
<path d="M70.2203 268.333L66.0078 244.234H385.164L379.771 268.333H70.2203Z" fill="url(#paint7_linear_482_908)"/>
<path d="M385.003 230.192L383.091 244.235H66.0096C64.9433 237.78 63.5854 230.56 64.6277 224.492C65.4693 219.572 67.8934 215.407 73.3299 213.017C75.3916 212.145 77.5956 211.659 79.8327 211.582L82.7255 211.453H369.808C370.379 211.454 370.948 211.505 371.51 211.606V211.606C375.726 212.358 379.487 214.714 382.003 218.179C384.518 221.645 385.594 225.95 385.003 230.192V230.192Z" fill="url(#paint8_linear_482_908)"/>
<path d="M106.308 236.936C104.653 242.454 102.769 246.465 102.349 249.396C101.928 252.327 97.3615 254.594 97.3615 248.674C97.3615 242.755 99.3792 240.771 97.1033 240.297C95.7645 240.015 93.9762 242.372 90.4093 246.355C87.0623 250.051 81.9127 256.913 77.5281 254.642C75.6729 253.685 76.0267 252.605 76.9686 251.582V251.558C77.3611 251.147 77.7795 250.762 78.2214 250.405L78.2549 250.377C78.787 249.967 79.2829 249.513 79.7371 249.019L79.5363 249.205L79.3307 249.392L79.1825 249.53C77.748 250.793 73.8224 253.867 70.9201 252.041C68.1182 250.276 71.8764 248.411 74.5779 246.355C74.5779 246.355 70.638 245.667 75.6203 240.852C77.0992 239.477 78.6995 238.238 80.4017 237.151L80.9085 236.821C86.2969 233.44 92.0067 230.6 97.9544 228.344C103.357 226.431 102.573 227.048 102.573 227.048C102.573 227.048 107.962 231.418 106.308 236.936Z" fill="url(#paint9_linear_482_908)"/>
<path d="M369.434 305.623L355.09 268.328H370.869L380.431 305.623H369.434Z" fill="url(#paint10_linear_482_908)"/>
<path d="M81.7395 305.623L96.0838 268.328H80.3051L70.7422 305.623H81.7395Z" fill="url(#paint11_linear_482_908)"/>
<path d="M401.765 188.076C401.511 188.023 401.253 187.985 400.99 187.951C398.156 187.601 395.299 188.391 393.047 190.146C390.795 191.902 389.332 194.48 388.979 197.313L385.154 227.078C384.969 223.334 383.521 219.764 381.045 216.95C378.569 214.137 375.212 212.245 371.522 211.586C370.96 211.485 370.391 211.433 369.82 211.433H362.428C362.065 211.433 361.563 211.433 361.065 211.433H359.812C359.946 205.623 361.496 177.537 376.361 181.817L401.765 188.076Z" fill="url(#paint12_linear_482_908)"/>
<path d="M379.773 268.329L388.978 197.335C389.152 195.931 389.6 194.576 390.298 193.346C390.996 192.116 391.929 191.035 393.044 190.166C394.159 189.296 395.435 188.655 396.798 188.279C398.161 187.903 399.585 187.798 400.989 187.972C402.577 188.169 404.111 188.676 405.503 189.465C406.895 190.255 408.117 191.31 409.101 192.572C410.085 193.834 410.811 195.277 411.237 196.82C411.663 198.362 411.781 199.973 411.584 201.561L405.847 247.836C404.288 260.416 393.204 267.717 379.773 268.329V268.329Z" fill="#CCF9FB"/>
<path d="M48.2227 188.076C48.4761 188.023 48.7343 187.985 48.9972 187.951C51.8313 187.601 54.6884 188.391 56.9406 190.146C59.1928 191.902 60.6559 194.48 61.0082 197.313L64.8334 227.078C65.0182 223.334 66.467 219.764 68.9429 216.95C71.4189 214.137 74.7757 212.245 78.4652 211.586C79.027 211.485 79.5967 211.433 80.1675 211.433H87.5643C87.9277 211.433 88.4298 211.433 88.927 211.433H90.1798C90.0459 205.623 88.4967 177.537 73.6312 181.817L48.2227 188.076Z" fill="url(#paint13_linear_482_908)"/>
<path d="M70.2243 268.329L61.0152 197.335C60.8414 195.931 60.3927 194.576 59.695 193.346C58.9973 192.116 58.0642 191.035 56.9488 190.166C55.8335 189.296 54.5578 188.655 53.1947 188.279C51.8315 187.903 50.4076 187.798 49.0043 187.972V187.972C47.4164 188.169 45.8828 188.676 44.491 189.465C43.0993 190.255 41.8767 191.31 40.8931 192.572C39.9096 193.834 39.1843 195.278 38.7588 196.82C38.3333 198.362 38.216 199.974 38.4134 201.561L44.1511 247.836C45.7098 260.416 56.7932 267.717 70.2291 268.329H70.2243Z" fill="#CCF9FB"/>
<path d="M183.275 250.98C178.933 262.513 184.805 285.707 179.072 316.486C172.741 350.458 139.156 348.918 139.156 348.918C142.47 318.718 148.91 309.562 146.845 260.696C146.787 259.402 146.749 258.147 146.73 256.933C146.73 256.11 146.73 255.302 146.73 254.542C146.73 251.673 146.816 249.043 146.988 246.624H147.132C147.457 242.342 148.259 238.11 149.522 234.006C149.806 233.142 150.104 232.331 150.417 231.572C152.329 226.891 154.796 224.199 157.249 222.698C157.964 222.26 158.724 221.899 159.516 221.622C162.121 220.726 164.953 220.741 167.548 221.665C167.548 221.665 171.852 223.668 175.887 231.123C175.945 231.228 175.992 231.323 176.05 231.424C176.466 232.198 176.853 232.772 177.231 233.518C179.751 238.491 181.563 243.191 183.647 248.427C183.767 248.737 183.891 249.043 184.016 249.354C183.734 249.88 183.487 250.423 183.275 250.98V250.98Z" fill="url(#paint14_linear_482_908)"/>
<path d="M223.969 245.293C222.142 246.455 216.228 248.315 216.118 248.367C215.664 247.411 213.957 243.634 213.531 242.725C206.837 228.381 208.056 220.429 204.312 214.596C215.444 216.987 224.787 216.356 236.415 212.172C237.873 226.727 233.847 239.034 223.969 245.293Z" fill="url(#paint15_linear_482_908)"/>
<path d="M259.725 210.446C259.62 210.599 259.505 210.747 259.395 210.891C259.285 211.034 259.161 211.178 259.037 211.316L226.839 178.979L216.798 155.407L211.117 142.076L211.787 118.547C211.787 118.547 222.507 118.91 229.339 127.957C229.636 128.349 229.923 128.755 230.205 129.176C231.375 130.966 232.319 132.893 233.016 134.914C235.029 140.718 237.336 146.415 239.93 151.983C240.212 152.591 240.49 153.179 240.767 153.762C243.653 159.86 246.922 165.769 250.554 171.453C252.705 174.926 254.622 178.537 256.292 182.264C260.423 191.473 264.33 203.843 259.725 210.446Z" fill="url(#paint16_linear_482_908)"/>
<path d="M242.913 212.192C223.128 219.364 219.394 220.014 187.635 208.916C156.245 197.948 142.967 214.434 142.656 214.826C145.367 208.132 148.078 202.538 150.966 196.982L151.851 195.289C154.442 190.374 157.192 185.392 160.233 179.573C160.529 179.008 160.831 178.43 161.132 177.847C162.858 174.5 164.675 170.904 166.616 166.878C176.714 145.892 190.523 117.18 190.523 117.18L205.939 117.739L242.913 212.192Z" fill="url(#paint17_linear_482_908)"/>
<path d="M239.863 315.462C239.863 315.462 212.771 326.498 193.923 291.785C178.048 262.551 182.653 245.443 177.221 233.705C176.863 232.93 176.447 232.194 176.031 231.419C175.973 231.319 175.925 231.223 175.868 231.118C171.837 223.664 167.529 221.66 167.529 221.66C167.529 221.66 150.048 214.392 147.108 246.619H144.755C143.296 246.624 141.863 246.224 140.617 245.464C139.37 244.705 138.358 243.615 137.693 242.316C135.888 238.828 134.928 234.964 134.891 231.037C134.886 230.265 134.921 229.495 134.996 228.727C135.175 226.953 135.549 225.203 136.11 223.511C140.461 210.347 150.412 206.297 162.007 200.87C173.602 195.444 191.126 186.88 198.608 201.028C205.986 214.971 205.102 217.338 210.94 232.337C212.03 235.144 215.645 244.654 217.72 250.746C217.988 251.525 223.242 267.638 223.51 268.437C233.905 299.88 232.714 297.379 239.863 315.462Z" fill="#FFE344"/>
<path d="M260.529 209.06C260.301 209.546 260.032 210.011 259.726 210.452L259.525 210.729L259.396 210.896C259.277 211.035 259.157 211.179 259.028 211.312C258.459 211.957 257.806 212.521 257.087 212.991C249.642 217.882 241.121 212.063 232.467 202.395C232.037 201.917 231.606 201.439 231.176 200.922C227.992 197.236 224.798 193.081 221.637 188.792C209.449 172.239 206.27 155.881 206.27 155.881C207.785 154.997 210.248 154.624 212.811 154.609C213.466 154.609 214.121 154.609 214.771 154.672C216.72 154.763 218.65 155.111 220.509 155.704C227.203 158.062 232.553 162.513 237.435 168.648C239.204 170.852 241.182 172.881 243.34 174.706C243.818 175.131 244.339 175.542 244.846 175.935C248.92 179.138 253.152 181.414 256.283 182.299C260.147 190.872 263.809 202.213 260.529 209.06Z" fill="white"/>
<path d="M190.51 117.181C190.228 117.769 176.615 146.104 166.603 166.87C162.74 174.889 159.35 181.267 156.247 187.048C152.646 190.667 148.395 194.287 141.587 199.819C140.037 201.081 138.35 202.315 136.58 203.515C136.045 203.878 135.505 204.237 134.955 204.596C121.089 213.57 103.216 220.331 103.216 220.331C101.059 206.738 107.552 197.041 117.082 188.716C117.56 188.305 118.038 187.899 118.516 187.492C123.953 182.964 130.245 178.819 136.442 174.626C149.352 165.904 156.643 147.606 159.871 138.009C160.323 136.661 160.816 135.386 161.348 134.184C161.583 133.653 161.826 133.132 162.075 132.63C166.135 124.464 172.092 120.05 179.336 118.19C179.967 118.028 180.613 117.884 181.249 117.76C183.657 117.318 186.101 117.1 188.55 117.11C189.803 117.124 190.51 117.181 190.51 117.181Z" fill="url(#paint18_linear_482_908)"/>
<path d="M211.295 96.9022C210.927 100.034 206.035 101.985 206.035 101.985V92.9815C206.232 93.0203 206.433 93.03 206.633 93.0102C210.353 92.6802 211.591 94.3537 211.295 96.9022Z" fill="url(#paint19_linear_482_908)"/>
<path d="M119.018 188.354C119.023 188.587 118.945 188.814 118.8 188.995C118.654 189.176 118.449 189.3 118.22 189.346C117.992 189.391 117.755 189.354 117.551 189.242C117.347 189.129 117.189 188.949 117.105 188.732C117.584 188.321 118.062 187.914 118.54 187.508C118.686 187.595 118.807 187.719 118.891 187.868C118.975 188.016 119.019 188.184 119.018 188.354Z" fill="#1031AE"/>
<path d="M142.041 174.136C142.587 174.136 143.03 173.693 143.03 173.146C143.03 172.599 142.587 172.156 142.041 172.156C141.494 172.156 141.051 172.599 141.051 173.146C141.051 173.693 141.494 174.136 142.041 174.136Z" fill="#1031AE"/>
<path d="M136.59 203.533C136.054 203.896 135.514 204.255 134.964 204.613C134.91 204.49 134.882 204.356 134.883 204.221C134.883 203.957 134.988 203.704 135.174 203.518C135.361 203.331 135.614 203.227 135.877 203.227C136.011 203.225 136.143 203.251 136.266 203.304C136.389 203.357 136.499 203.435 136.59 203.533Z" fill="#1031AE"/>
<path d="M118.138 206.308C118.685 206.308 119.128 205.864 119.128 205.318C119.128 204.771 118.685 204.328 118.138 204.328C117.592 204.328 117.148 204.771 117.148 205.318C117.148 205.864 117.592 206.308 118.138 206.308Z" fill="#1031AE"/>
<path d="M172.337 146.378C172.884 146.378 173.327 145.935 173.327 145.388C173.327 144.842 172.884 144.398 172.337 144.398C171.791 144.398 171.348 144.842 171.348 145.388C171.348 145.935 171.791 146.378 172.337 146.378Z" fill="#1031AE"/>
<path d="M161.982 171.933C162.529 171.933 162.972 171.489 162.972 170.943C162.972 170.396 162.529 169.953 161.982 169.953C161.435 169.953 160.992 170.396 160.992 170.943C160.992 171.489 161.435 171.933 161.982 171.933Z" fill="#1031AE"/>
<path d="M163.19 133.646C163.19 133.776 163.165 133.905 163.115 134.025C163.065 134.145 162.992 134.254 162.9 134.346C162.808 134.438 162.699 134.511 162.579 134.56C162.459 134.61 162.33 134.636 162.2 134.636C162.04 134.636 161.882 134.597 161.74 134.523C161.597 134.449 161.475 134.342 161.383 134.21C161.617 133.679 161.861 133.158 162.11 132.656H162.2C162.463 132.656 162.715 132.761 162.9 132.946C163.086 133.132 163.19 133.383 163.19 133.646Z" fill="#1031AE"/>
<path d="M172.556 135.8C173.103 135.8 173.546 135.357 173.546 134.81C173.546 134.263 173.103 133.82 172.556 133.82C172.01 133.82 171.566 134.263 171.566 134.81C171.566 135.357 172.01 135.8 172.556 135.8Z" fill="#1031AE"/>
<path d="M181.157 117.843C181.153 118.105 181.045 118.355 180.856 118.538C180.668 118.721 180.415 118.821 180.152 118.817C179.89 118.813 179.64 118.704 179.457 118.516C179.274 118.327 179.174 118.074 179.178 117.812C179.821 117.704 180.476 117.616 181.12 117.547C181.148 117.643 181.161 117.743 181.157 117.843Z" fill="#1031AE"/>
<path d="M178.255 171.558C178.802 171.558 179.245 171.114 179.245 170.568C179.245 170.021 178.802 169.578 178.255 169.578C177.709 169.578 177.266 170.021 177.266 170.568C177.266 171.114 177.709 171.558 178.255 171.558Z" fill="#1031AE"/>
<path d="M228.06 212.792C228.607 212.792 229.05 212.349 229.05 211.802C229.05 211.256 228.607 210.812 228.06 210.812C227.513 210.812 227.07 211.256 227.07 211.802C227.07 212.349 227.513 212.792 228.06 212.792Z" fill="#1031AE"/>
<path d="M207.763 175.667C208.31 175.667 208.753 175.224 208.753 174.677C208.753 174.131 208.31 173.688 207.763 173.688C207.217 173.688 206.773 174.131 206.773 174.677C206.773 175.224 207.217 175.667 207.763 175.667Z" fill="#1031AE"/>
<path d="M152.611 196.258C152.611 196.52 152.506 196.772 152.321 196.958C152.135 197.143 151.883 197.248 151.621 197.248C151.376 197.249 151.14 197.157 150.961 196.99L151.845 195.297C152.063 195.347 152.256 195.47 152.395 195.644C152.534 195.819 152.61 196.035 152.611 196.258Z" fill="#1031AE"/>
<path d="M193.61 141.695V143.651C193.377 143.614 193.164 143.496 193.011 143.316C192.858 143.137 192.773 142.909 192.773 142.673C192.773 142.437 192.858 142.209 193.011 142.03C193.164 141.85 193.377 141.732 193.61 141.695V141.695Z" fill="#1031AE"/>
<path d="M202.564 152.815C203.111 152.815 203.554 152.372 203.554 151.826C203.554 151.279 203.111 150.836 202.564 150.836C202.017 150.836 201.574 151.279 201.574 151.826C201.574 152.372 202.017 152.815 202.564 152.815Z" fill="#1031AE"/>
<path d="M159.87 203.133C159.273 203.415 158.68 203.692 158.097 203.979C158.003 203.823 157.954 203.645 157.953 203.463C157.959 203.234 158.045 203.015 158.194 202.842C158.344 202.669 158.549 202.553 158.774 202.514C159 202.476 159.232 202.516 159.431 202.629C159.629 202.741 159.783 202.92 159.866 203.133H159.87Z" fill="#1031AE"/>
<path d="M197.154 188.104C197.7 188.104 198.144 187.661 198.144 187.115C198.144 186.568 197.7 186.125 197.154 186.125C196.607 186.125 196.164 186.568 196.164 187.115C196.164 187.661 196.607 188.104 197.154 188.104Z" fill="#1031AE"/>
<path d="M214.052 206.573C214.599 206.573 215.042 206.13 215.042 205.583C215.042 205.037 214.599 204.594 214.052 204.594C213.506 204.594 213.062 205.037 213.062 205.583C213.062 206.13 213.506 206.573 214.052 206.573Z" fill="#1031AE"/>
<path d="M222.221 189.6C222.052 189.729 221.845 189.798 221.633 189.796C221.424 189.796 221.221 189.73 221.052 189.607C220.884 189.484 220.758 189.312 220.693 189.113C220.629 188.915 220.628 188.701 220.692 188.503C220.756 188.304 220.881 188.131 221.049 188.008L221.633 188.806L222.221 189.6Z" fill="#1031AE"/>
<path d="M189.474 126.292C190.021 126.292 190.464 125.849 190.464 125.302C190.464 124.756 190.021 124.312 189.474 124.312C188.927 124.312 188.484 124.756 188.484 125.302C188.484 125.849 188.927 126.292 189.474 126.292Z" fill="#1031AE"/>
<path d="M161.808 178.794C161.808 179.055 161.705 179.305 161.52 179.49C161.335 179.675 161.085 179.778 160.823 179.778C160.609 179.78 160.4 179.709 160.23 179.578C160.527 179.013 160.828 178.435 161.129 177.852C161.327 177.918 161.499 178.044 161.621 178.213C161.742 178.382 161.808 178.585 161.808 178.794V178.794Z" fill="#1031AE"/>
<path d="M219.497 168.22C220.041 168.22 220.482 167.779 220.482 167.235C220.482 166.691 220.041 166.25 219.497 166.25C218.953 166.25 218.512 166.691 218.512 167.235C218.512 167.779 218.953 168.22 219.497 168.22Z" fill="#001CB0"/>
<path d="M250.536 201.204C251.08 201.204 251.521 200.763 251.521 200.219C251.521 199.675 251.08 199.234 250.536 199.234C249.992 199.234 249.551 199.675 249.551 200.219C249.551 200.763 249.992 201.204 250.536 201.204Z" fill="#001CB0"/>
<path d="M260.528 209.069C260.3 209.554 260.031 210.02 259.725 210.46L259.524 210.737C259.365 210.61 259.249 210.436 259.194 210.24C259.138 210.044 259.145 209.836 259.213 209.644C259.281 209.452 259.408 209.286 259.575 209.169C259.742 209.052 259.941 208.99 260.145 208.992C260.277 208.993 260.406 209.019 260.528 209.069V209.069Z" fill="#001CB0"/>
<path d="M232.869 201.597C232.87 201.753 232.833 201.907 232.763 202.046C232.692 202.185 232.589 202.305 232.463 202.396C232.033 201.918 231.602 201.44 231.172 200.923C231.264 200.827 231.375 200.751 231.497 200.698C231.62 200.646 231.751 200.618 231.884 200.617C232.013 200.617 232.141 200.641 232.261 200.69C232.38 200.739 232.489 200.812 232.581 200.903C232.672 200.994 232.745 201.102 232.794 201.221C232.844 201.34 232.869 201.468 232.869 201.597Z" fill="#001CB0"/>
<path d="M214.746 154.681C214.715 154.925 214.595 155.148 214.408 155.307C214.222 155.467 213.982 155.551 213.737 155.543C213.492 155.535 213.258 155.436 213.082 155.265C212.906 155.095 212.8 154.864 212.785 154.619C213.459 154.61 214.114 154.634 214.746 154.681Z" fill="#001CB0"/>
<path d="M244.832 175.942C244.746 176.09 244.623 176.212 244.474 176.296C244.325 176.38 244.156 176.423 243.985 176.42C243.786 176.42 243.592 176.359 243.427 176.247C243.263 176.134 243.137 175.974 243.066 175.788C242.994 175.602 242.981 175.399 243.027 175.205C243.073 175.012 243.178 174.836 243.325 174.703C243.823 175.138 244.325 175.549 244.832 175.942Z" fill="#001CB0"/>
<path d="M241.907 206.079C242.451 206.079 242.892 205.638 242.892 205.094C242.892 204.55 242.451 204.109 241.907 204.109C241.363 204.109 240.922 204.55 240.922 205.094C240.922 205.638 241.363 206.079 241.907 206.079Z" fill="#001CB0"/>
<path d="M230.194 129.193C230.15 129.372 230.055 129.535 229.923 129.663C229.79 129.791 229.624 129.879 229.443 129.917C229.263 129.956 229.075 129.942 228.902 129.879C228.728 129.816 228.576 129.706 228.463 129.56C228.349 129.415 228.279 129.24 228.259 129.057C228.24 128.873 228.273 128.688 228.353 128.522C228.434 128.356 228.56 128.217 228.716 128.119C228.873 128.021 229.054 127.969 229.238 127.969H229.329C229.625 128.366 229.912 128.786 230.194 129.193Z" fill="#001CB0"/>
<path d="M222.833 151.517C223.377 151.517 223.818 151.076 223.818 150.532C223.818 149.988 223.377 149.547 222.833 149.547C222.289 149.547 221.848 149.988 221.848 150.532C221.848 151.076 222.289 151.517 222.833 151.517Z" fill="#001CB0"/>
<path d="M217.821 148.728C218.365 148.728 218.806 148.287 218.806 147.743C218.806 147.199 218.365 146.758 217.821 146.758C217.277 146.758 216.836 147.199 216.836 147.743C216.836 148.287 217.277 148.728 217.821 148.728Z" fill="#001CB0"/>
<path d="M243.852 168.353C244.396 168.353 244.837 167.912 244.837 167.368C244.837 166.824 244.396 166.383 243.852 166.383C243.308 166.383 242.867 166.824 242.867 167.368C242.867 167.912 243.308 168.353 243.852 168.353Z" fill="#001CB0"/>
<path d="M240.758 153.802C240.637 153.852 240.507 153.878 240.376 153.879C240.114 153.879 239.864 153.775 239.679 153.59C239.494 153.405 239.391 153.155 239.391 152.894C239.388 152.713 239.437 152.536 239.53 152.382C239.624 152.228 239.76 152.104 239.921 152.023C240.204 152.631 240.481 153.219 240.758 153.802Z" fill="#001CB0"/>
<path d="M213.79 121.032C214.334 121.032 214.775 120.591 214.775 120.047C214.775 119.503 214.334 119.062 213.79 119.062C213.246 119.062 212.805 119.503 212.805 120.047C212.805 120.591 213.246 121.032 213.79 121.032Z" fill="#001CB0"/>
<path d="M187.47 110.158L187.68 118.129C187.68 118.129 188.747 122.318 193.471 121.423C197.047 120.744 196.866 117.12 196.866 117.12L196.344 109.891C194.877 110.519 193.293 110.828 191.697 110.799C190.262 110.823 188.833 110.607 187.47 110.158V110.158Z" fill="url(#paint20_linear_482_908)"/>
<path d="M176.099 96.8884C176.468 100.02 181.359 101.971 181.359 101.971C181.359 101.971 181.742 110.807 191.744 110.807C201.867 110.807 203.143 100.484 201.498 97.0844C199.854 93.6848 196.994 93.1875 196.994 89.262C196.994 85.3364 192.61 80.8323 187.967 83.0461C184.237 84.8105 184.204 85.3842 184.204 85.3842C184.204 85.3842 184.429 92.4512 181.359 92.9819C181.162 93.0208 180.961 93.0304 180.761 93.0106C177.041 92.6663 175.803 94.3399 176.099 96.8884Z" fill="url(#paint21_linear_482_908)"/>
<path d="M194.837 103.142H195.014C195.356 103.094 195.685 102.978 195.98 102.799C196.276 102.621 196.533 102.384 196.735 102.104C196.755 102.079 196.769 102.049 196.777 102.018C196.786 101.986 196.787 101.954 196.782 101.922C196.777 101.89 196.766 101.859 196.749 101.831C196.732 101.804 196.709 101.78 196.683 101.762C196.656 101.743 196.626 101.73 196.594 101.724C196.562 101.717 196.529 101.717 196.498 101.724C196.466 101.73 196.436 101.743 196.409 101.762C196.383 101.78 196.36 101.804 196.343 101.832C196.012 102.281 195.517 102.58 194.966 102.664C194.62 102.663 194.278 102.586 193.966 102.436C193.654 102.286 193.38 102.068 193.163 101.798C193.141 101.776 193.115 101.758 193.085 101.746C193.056 101.734 193.025 101.728 192.994 101.728C192.962 101.728 192.931 101.734 192.902 101.746C192.872 101.758 192.846 101.776 192.824 101.798C192.801 101.82 192.784 101.847 192.771 101.876C192.759 101.905 192.753 101.936 192.753 101.968C192.753 102 192.759 102.031 192.771 102.06C192.784 102.089 192.801 102.116 192.824 102.138C193.074 102.432 193.382 102.673 193.728 102.845C194.074 103.018 194.451 103.119 194.837 103.142V103.142Z" fill="white"/>
<path d="M153.384 112.661C153.345 116.868 155.693 120.976 160.35 124.873L160.828 124.323C156.343 120.569 154.086 116.648 154.134 112.67C154.173 108.224 157.07 103.648 162.741 99.0623C164.869 97.3458 166.38 94.8738 167.427 92.5213C166.054 98.1013 164.964 99.1436 162.334 101.343C158.772 104.327 151.815 113.268 162.215 123.754C166.093 120.756 170.756 118.947 175.641 118.547C178.622 118.302 180.063 117.604 187.707 117.604L187.518 110.16C181.628 108.123 181.36 101.974 181.36 101.974C181.36 101.974 176.492 100.023 176.1 96.8916C175.804 94.3383 177.057 92.6695 180.738 92.9995C184.42 93.3294 184.181 85.3492 184.181 85.3492C184.181 85.3492 184.181 85.3109 184.243 85.2344L180.896 80.386C178.596 77.6702 171.333 76.1114 168.885 85.6456H168.794C168.794 85.7317 167.255 94.4769 162.258 98.5124C156.386 103.232 153.422 107.994 153.384 112.661Z" fill="url(#paint22_linear_482_908)"/>
<path d="M180.841 80.3197L183.968 85.2829L184.183 85.675C184.183 85.4837 184.183 85.3737 184.183 85.3737C184.183 85.3737 184.216 84.7999 187.946 83.0356C192.589 80.8361 196.973 85.3355 196.973 89.2515C196.973 93.1675 199.842 93.6791 201.477 97.0739C202.826 99.8567 202.214 107.297 196.371 109.888L196.892 117.118V117.156C196.892 117.156 197.599 117.099 198.804 117.103C208.429 117.103 216.61 120.015 222.348 127.761C222.554 127.618 222.755 127.47 222.96 127.317C231.199 121.101 233.398 113.928 232.662 108.224C233.005 109.36 233.208 110.534 233.264 111.719C233.542 117.701 230.128 123.84 223.113 129.961L223.591 130.501C230.764 124.228 234.283 117.892 233.991 111.676C233.822 108.913 232.949 106.238 231.457 103.907C230.362 101.439 228.712 99.522 226.934 98.4797C220.78 94.8649 213.546 89.7487 210.332 83.6572C207.119 77.5656 206.177 68.9973 194.812 68.2275C183.446 67.4577 180.468 78.0294 180.841 80.3197Z" fill="url(#paint23_linear_482_908)"/>
<path d="M180.736 93.004C180.96 93.0266 181.186 93.012 181.405 92.9609C182.522 93.1548 183.617 93.4559 184.676 93.8599C184.676 94.0224 184.652 94.1898 184.652 94.338C184.652 94.4241 184.652 94.5149 184.652 94.601C182.375 93.6936 179.927 93.2954 177.48 93.4343C178.24 93.047 179.301 92.8749 180.736 93.004Z" fill="white"/>
<path d="M189.38 89.5136C190.567 89.523 191.707 89.9729 192.58 90.7762C193.453 91.5794 193.997 92.6785 194.105 93.8599C194.739 93.6625 195.415 93.641 196.06 93.7978C196.156 92.5312 196.739 91.351 197.687 90.5051C198.634 89.6592 199.873 89.2134 201.142 89.2613C202.411 89.3093 203.613 89.8473 204.494 90.7623C205.375 91.6773 205.867 92.8981 205.867 94.1684C205.867 95.4386 205.375 96.6594 204.494 97.5744C203.613 98.4894 202.411 99.0274 201.142 99.0754C199.873 99.1234 198.634 98.6776 197.687 97.8317C196.739 96.9858 196.156 95.8055 196.06 94.5389C195.431 94.354 194.759 94.3809 194.148 94.6154C194.079 95.5369 193.742 96.4182 193.18 97.1514C192.618 97.8846 191.853 98.4377 190.981 98.743C190.109 99.0482 189.167 99.0924 188.27 98.87C187.373 98.6476 186.561 98.1683 185.932 97.491C185.304 96.8136 184.887 95.9676 184.732 95.0566C184.577 94.1456 184.692 93.2093 185.061 92.3624C185.431 91.5155 186.04 90.7949 186.813 90.2888C187.586 89.7828 188.49 89.5134 189.414 89.5136H189.38ZM200.784 98.4215C201.604 98.4405 202.411 98.2147 203.102 97.773C203.793 97.3313 204.337 96.6937 204.664 95.9416C204.991 95.1894 205.086 94.3569 204.938 93.5503C204.79 92.7436 204.405 91.9995 203.832 91.4128C203.258 90.8261 202.524 90.4235 201.721 90.2564C200.918 90.0892 200.083 90.1652 199.324 90.4745C198.564 90.7838 197.914 91.3124 197.456 91.9929C196.998 92.6734 196.754 93.4749 196.753 94.2951C196.748 94.8321 196.848 95.365 197.049 95.8632C197.249 96.3614 197.546 96.8152 197.922 97.1985C198.299 97.5818 198.747 97.8871 199.241 98.0969C199.735 98.3068 200.266 98.4171 200.803 98.4215H200.784ZM189.38 98.4788C190.201 98.4978 191.008 98.272 191.699 97.8301C192.39 97.3881 192.934 96.7502 193.261 95.9978C193.588 95.2454 193.683 94.4126 193.534 93.6059C193.386 92.7991 193 92.0549 192.426 91.4684C191.853 90.8819 191.117 90.4797 190.314 90.3132C189.511 90.1466 188.676 90.2232 187.917 90.5332C187.157 90.8433 186.507 91.3727 186.05 92.0538C185.593 92.7349 185.349 93.5369 185.35 94.3572C185.339 95.4378 185.758 96.4783 186.514 97.2508C187.269 98.0234 188.3 98.465 189.38 98.4788V98.4788Z" fill="white"/>
<path d="M202.588 119.297V122.871C204.008 122.994 205.331 123.645 206.295 124.696C207.258 125.746 207.793 127.12 207.793 128.546C207.793 129.971 207.258 131.345 206.295 132.396C205.331 133.446 204.008 134.097 202.588 134.22V137.678C202.588 138.404 202.445 139.123 202.167 139.794C201.889 140.464 201.481 141.074 200.968 141.587C200.454 142.1 199.845 142.507 199.174 142.784C198.503 143.062 197.784 143.205 197.058 143.204H188.235C186.701 143.204 185.23 142.595 184.145 141.51C183.061 140.425 182.451 138.954 182.451 137.42V119.297H202.588ZM202.634 133.338C203.815 133.209 204.907 132.649 205.701 131.765C206.494 130.88 206.933 129.734 206.933 128.546C206.933 127.357 206.494 126.211 205.701 125.327C204.907 124.442 203.815 123.882 202.634 123.754V133.338Z" fill="url(#paint24_linear_482_908)"/>
<path d="M216.686 132.65C217.427 136.809 217.094 141.516 216.371 143.964C215.82 145.653 215.09 147.278 214.194 148.812C214.194 148.812 208.925 145.667 205.003 141.714C201.736 138.4 198.636 134.924 195.717 131.299C194.018 129.139 194.719 126.285 197.169 128.146C196.994 127.99 194.825 126.017 195.528 123.682C196.267 121.253 198.408 122.933 199.849 124.206C200.691 124.948 201.624 125.669 202.262 126.141L202.045 125.958C201.109 125.142 199.857 123.724 200.152 122.129C200.619 119.628 202.279 121.755 204.741 123.284C205.041 123.47 205.685 123.863 206.17 124.211C206.425 124.394 206.879 124.683 206.879 124.683C206.879 124.683 206.408 122.224 208.852 123.79C209.043 123.915 209.259 124.065 209.493 124.249C210.06 124.689 210.636 125.107 211.188 125.511C211.811 125.975 212.423 126.428 213.015 126.897C213.508 127.297 213.973 127.729 214.408 128.191C215.606 129.409 216.401 130.965 216.686 132.65Z" fill="url(#paint25_linear_482_908)"/>
<path d="M211.188 125.517L206.376 135.848C205.666 134.927 202.947 132.483 202.208 132.114C201.468 131.746 197.173 128.15 197.173 128.15C196.997 127.994 194.829 126.02 195.531 123.686C196.27 121.257 198.411 122.936 199.852 124.209C200.694 124.952 201.628 125.672 202.266 126.144C201.309 125.371 199.836 123.855 200.156 122.132C200.623 119.632 202.282 121.759 204.744 123.288C205.045 123.474 205.659 123.883 206.171 124.211C206.439 124.376 206.939 124.754 206.939 124.754C206.939 124.754 206.324 121.802 209.497 124.253C210.054 124.686 210.631 125.104 211.188 125.517Z" fill="url(#paint26_linear_482_908)"/>
<path d="M212.998 126.919L211.025 133.567C209.872 131.586 202.261 126.143 202.261 126.143L202.044 125.96C201.108 125.144 199.855 123.726 200.151 122.131C200.618 119.63 202.277 121.757 204.74 123.286C205.04 123.472 205.684 123.865 206.169 124.213C206.424 124.396 206.877 124.685 206.877 124.685C206.877 124.685 206.406 122.226 208.85 123.792C209.042 123.917 209.258 124.067 209.492 124.251C210.058 124.691 210.635 125.109 211.187 125.513C211.814 125.985 212.426 126.439 212.998 126.919Z" fill="url(#paint27_linear_482_908)"/>
<path d="M214.401 128.232L214.329 131.026C213.104 128.737 206.888 124.705 206.888 124.705C206.888 124.705 206.417 122.245 208.861 123.811C209.053 123.937 209.269 124.087 209.503 124.271C210.069 124.71 210.646 125.129 211.198 125.532C211.821 125.996 212.432 126.45 213.025 126.919C213.513 127.326 213.972 127.764 214.401 128.232V128.232Z" fill="url(#paint28_linear_482_908)"/>
</g>
<defs>
<linearGradient id="paint0_linear_482_908" x1="336.415" y1="4.77311" x2="204.439" y2="379.539" gradientUnits="userSpaceOnUse">
<stop stop-color="#FFEE8F"/>
<stop offset="1" stop-color="#F7F7F9"/>
</linearGradient>
<linearGradient id="paint1_linear_482_908" x1="348.207" y1="50.3468" x2="347.246" y2="109.546" gradientUnits="userSpaceOnUse">
<stop offset="0.35" stop-color="#F6A623"/>
<stop offset="0.98" stop-color="#FFE344"/>
</linearGradient>
<linearGradient id="paint2_linear_482_908" x1="581354" y1="1167.6" x2="581352" y2="1531.12" gradientUnits="userSpaceOnUse">
<stop offset="0.35" stop-color="#F6A623"/>
<stop offset="0.98" stop-color="#FFE344"/>
</linearGradient>
<linearGradient id="paint3_linear_482_908" x1="225.002" y1="326.643" x2="225.002" y2="187.614" gradientUnits="userSpaceOnUse">
<stop offset="0.24" stop-color="#00DFED"/>
<stop offset="1" stop-color="#CCF9FB"/>
</linearGradient>
<linearGradient id="paint4_linear_482_908" x1="4838.8" y1="7776.42" x2="4594.88" y2="8793.31" gradientUnits="userSpaceOnUse">
<stop offset="0.25" stop-color="#8994AF"/>
<stop offset="1" stop-color="#F7F7F9"/>
</linearGradient>
<linearGradient id="paint5_linear_482_908" x1="20464.5" y1="3200.12" x2="20532.3" y2="5124.66" gradientUnits="userSpaceOnUse">
<stop offset="0.665" stop-color="#FBC534"/>
<stop offset="0.98" stop-color="#FFE344"/>
</linearGradient>
<linearGradient id="paint6_linear_482_908" x1="4893.87" y1="124940" x2="6537.69" y2="125012" gradientUnits="userSpaceOnUse">
<stop offset="0.35" stop-color="#F6A623"/>
<stop offset="0.98" stop-color="#FFE344"/>
</linearGradient>
<linearGradient id="paint7_linear_482_908" x1="217.632" y1="2.92945" x2="228.228" y2="324.419" gradientUnits="userSpaceOnUse">
<stop stop-color="#D3F7FA"/>
<stop offset="1" stop-color="#98ECF5"/>
</linearGradient>
<linearGradient id="paint8_linear_482_908" x1="275.6" y1="218.433" x2="269.023" y2="294.048" gradientUnits="userSpaceOnUse">
<stop offset="0.06" stop-color="#9AEDF4"/>
<stop offset="0.6" stop-color="#04DFED"/>
</linearGradient>
<linearGradient id="paint9_linear_482_908" x1="63371.3" y1="27064.9" x2="66186.4" y2="27064.9" gradientUnits="userSpaceOnUse">
<stop offset="0.4" stop-color="#001CB0"/>
<stop offset="1" stop-color="#263EBC"/>
</linearGradient>
<linearGradient id="paint10_linear_482_908" x1="355.09" y1="286.976" x2="380.431" y2="286.976" gradientUnits="userSpaceOnUse">
<stop stop-color="#0D277D"/>
<stop offset="1" stop-color="#001CB0"/>
</linearGradient>
<linearGradient id="paint11_linear_482_908" x1="-68105.7" y1="39280.1" x2="-69448.8" y2="39280.1" gradientUnits="userSpaceOnUse">
<stop stop-color="#0D277D"/>
<stop offset="1" stop-color="#001CB0"/>
</linearGradient>
<linearGradient id="paint12_linear_482_908" x1="387.442" y1="191.107" x2="334.483" y2="248.198" gradientUnits="userSpaceOnUse">
<stop offset="0.06" stop-color="#9AEDF4"/>
<stop offset="0.6" stop-color="#04DFED"/>
</linearGradient>
<linearGradient id="paint13_linear_482_908" x1="75.8552" y1="191.107" x2="22.8969" y2="248.204" gradientUnits="userSpaceOnUse">
<stop offset="0.06" stop-color="#9AEDF4"/>
<stop offset="0.6" stop-color="#04DFED"/>
</linearGradient>
<linearGradient id="paint14_linear_482_908" x1="170.038" y1="355.216" x2="87.5037" y2="266.387" gradientUnits="userSpaceOnUse">
<stop offset="0.12" stop-color="#FFE344"/>
<stop offset="1" stop-color="#F6A623"/>
</linearGradient>
<linearGradient id="paint15_linear_482_908" x1="226.612" y1="250.146" x2="211.566" y2="208.806" gradientUnits="userSpaceOnUse">
<stop offset="0.12" stop-color="#FFE344"/>
<stop offset="1" stop-color="#F6A623"/>
</linearGradient>
<linearGradient id="paint16_linear_482_908" x1="242" y1="116.166" x2="233.604" y2="188.743" gradientUnits="userSpaceOnUse">
<stop offset="0.2" stop-color="white"/>
<stop offset="1" stop-color="#CCF9FB"/>
</linearGradient>
<linearGradient id="paint17_linear_482_908" x1="193418" y1="78942.5" x2="213863" y2="93681.1" gradientUnits="userSpaceOnUse">
<stop offset="0.2" stop-color="white"/>
<stop offset="1" stop-color="#CCF9FB"/>
</linearGradient>
<linearGradient id="paint18_linear_482_908" x1="165288" y1="82657.5" x2="170401" y2="87419.3" gradientUnits="userSpaceOnUse">
<stop offset="0.2" stop-color="white"/>
<stop offset="1" stop-color="#CCF9FB"/>
</linearGradient>
<linearGradient id="paint19_linear_482_908" x1="10728.5" y1="6003.88" x2="11060.1" y2="5987.94" gradientUnits="userSpaceOnUse">
<stop offset="0.4" stop-color="#001CB0"/>
<stop offset="1" stop-color="#263EBC"/>
</linearGradient>
<linearGradient id="paint20_linear_482_908" x1="-18487.9" y1="7811.99" x2="-18463.1" y2="8295.12" gradientUnits="userSpaceOnUse">
<stop offset="0.4" stop-color="#001CB0"/>
<stop offset="1" stop-color="#263EBC"/>
</linearGradient>
<linearGradient id="paint21_linear_482_908" x1="-51734.6" y1="17456.1" x2="-51685.9" y2="19804.7" gradientUnits="userSpaceOnUse">
<stop offset="0.4" stop-color="#001CB0"/>
<stop offset="1" stop-color="#263EBC"/>
</linearGradient>
<linearGradient id="paint22_linear_482_908" x1="165.05" y1="88.2267" x2="218.563" y2="134.353" gradientUnits="userSpaceOnUse">
<stop offset="0.06" stop-color="#9AEDF4"/>
<stop offset="0.6" stop-color="#04DFED"/>
</linearGradient>
<linearGradient id="paint23_linear_482_908" x1="198.972" y1="81.4561" x2="271.383" y2="154.054" gradientUnits="userSpaceOnUse">
<stop offset="0.06" stop-color="#9AEDF4"/>
<stop offset="0.6" stop-color="#04DFED"/>
</linearGradient>
<linearGradient id="paint24_linear_482_908" x1="190.347" y1="144.379" x2="199.029" y2="116.124" gradientUnits="userSpaceOnUse">
<stop offset="0.12" stop-color="#FFE344"/>
<stop offset="1" stop-color="#F6A623"/>
</linearGradient>
<linearGradient id="paint25_linear_482_908" x1="44617.8" y1="5065.36" x2="43767.7" y2="2742.33" gradientUnits="userSpaceOnUse">
<stop offset="0.4" stop-color="#001CB0"/>
<stop offset="1" stop-color="#263EBC"/>
</linearGradient>
<linearGradient id="paint26_linear_482_908" x1="29941.3" y1="-2575.38" x2="30600.9" y2="-2808.66" gradientUnits="userSpaceOnUse">
<stop offset="0.4" stop-color="#001CB0"/>
<stop offset="1" stop-color="#263EBC"/>
</linearGradient>
<linearGradient id="paint27_linear_482_908" x1="22497.8" y1="851.765" x2="22926.6" y2="790.884" gradientUnits="userSpaceOnUse">
<stop offset="0.4" stop-color="#001CB0"/>
<stop offset="1" stop-color="#263EBC"/>
</linearGradient>
<linearGradient id="paint28_linear_482_908" x1="12281.4" y1="1782.78" x2="12515.6" y2="1700.67" gradientUnits="userSpaceOnUse">
<stop offset="0.4" stop-color="#001CB0"/>
<stop offset="1" stop-color="#263EBC"/>
</linearGradient>
<clipPath id="clip0_482_908">
<rect width="526" height="305.185" fill="white" transform="translate(0 0.4375)"/>
</clipPath>
</defs>
</svg>
