<svg width="156" height="156" viewBox="0 0 156 156" fill="none" xmlns="http://www.w3.org/2000/svg">
<g clip-path="url(#clip0_325_198)">
<path d="M77.9516 155.903C120.55 155.903 156 120.55 156 77.9516C156 35.3535 120.453 0 77.855 0C35.3535 0 0 35.3535 0 77.9516C0 120.55 35.4501 155.903 77.9516 155.903ZM77.9516 141.22C42.8879 141.22 14.8756 113.111 14.8756 77.9516C14.8756 42.7913 42.7913 14.6824 77.855 14.6824C113.016 14.6824 141.22 42.7913 141.22 77.9516C141.22 113.111 113.112 141.22 77.9516 141.22Z" fill="#FFE344"/>
<path d="M77.8559 116.282C93.9871 116.282 104.806 105.657 104.806 100.44C104.806 98.5088 102.874 97.5429 100.942 98.3157C95.2429 101.02 88.9643 104.401 77.8559 104.401C66.8441 104.401 60.5656 101.02 54.8665 98.3157C52.9346 97.5429 51.0027 98.5088 51.0027 100.44C51.0027 105.657 61.8213 116.282 77.8559 116.282ZM55.5426 71.3658C60.5656 71.3658 65.0089 67.019 65.0089 60.7404C65.0089 54.2686 60.5656 49.9219 55.5426 49.9219C50.6163 49.9219 46.2695 54.2686 46.2695 60.7404C46.2695 67.019 50.6163 71.3658 55.5426 71.3658ZM100.266 71.3658C105.288 71.3658 109.636 67.019 109.636 60.7404C109.636 54.2686 105.288 49.9219 100.266 49.9219C95.2429 49.9219 90.9928 54.2686 90.9928 60.7404C90.9928 67.019 95.2429 71.3658 100.266 71.3658Z" fill="#FFE344"/>
</g>
<defs>
<clipPath id="clip0_325_198">
<rect width="156" height="156" fill="white"/>
</clipPath>
</defs>
</svg>
