<svg width="156" height="155" viewBox="0 0 156 155" fill="none" xmlns="http://www.w3.org/2000/svg">
<g clip-path="url(#clip0_328_169)">
<path d="M35.342 153.903H120.555C140.029 153.903 156 140.303 156 119.901C156 99.4994 140.029 85.8984 120.555 85.8984H35.342C15.8679 85.8984 0 99.4994 0 119.901C0 140.303 15.8679 153.903 35.342 153.903ZM122.615 140.096C111.384 139.994 102.42 131.029 102.42 119.798C102.42 108.669 111.384 99.6025 122.615 99.6025C133.949 99.6025 143.017 108.567 142.913 119.695C142.913 130.926 133.846 140.199 122.615 140.096Z" fill="#1EC9FF"/>
<path d="M38.6391 55.5491C48.7368 55.6522 56.7738 47.4092 56.8768 37.3114C56.9799 27.3167 48.7368 19.3828 38.6391 19.3828C28.6444 19.3828 20.6074 27.4198 20.6074 37.4144C20.6074 47.5121 28.6444 55.4461 38.6391 55.5491Z" fill="#1EC9FF"/>
<path d="M38.6393 75.0195H117.257C138.689 75.0195 156 59.9759 156 37.5137C156 15.0513 138.689 0.0078125 117.257 0.0078125H38.6393C17.3103 0.0078125 0 15.0513 0 37.5137C0 59.9759 17.3103 75.0195 38.6393 75.0195ZM38.6393 61.1094C25.6565 61.1094 13.9101 51.7329 13.9101 37.5137C13.9101 23.2944 25.6565 13.918 38.6393 13.918H117.257C130.343 13.918 142.089 23.2944 142.089 37.5137C142.089 51.7329 130.343 61.1094 117.257 61.1094H38.6393Z" fill="#1EC9FF"/>
</g>
<defs>
<clipPath id="clip0_328_169">
<rect width="156" height="154.042" fill="white"/>
</clipPath>
</defs>
</svg>
