<svg width="2000" height="2000" viewBox="0 0 2000 2000" fill="none" xmlns="http://www.w3.org/2000/svg">
<g clip-path="url(#clip0_3347_1461)">
<g clip-path="url(#clip1_3347_1461)">
<path d="M1010.57 2000L999.982 2000L999.982 1500.01C999.982 1224.84 1224.98 999.982 1500.01 999.982L2000 999.982L2000 1010.57L1500.01 1010.57C1370.32 1010.97 1246.06 1062.66 1154.36 1154.36C1062.66 1246.06 1010.97 1370.32 1010.57 1500.01L1010.57 2000Z" fill="white" fill-opacity="0.1"/>
<path d="M2000 10.5833L999.982 10.5834C867.978 10.3984 737.304 36.9557 615.843 88.653C378.678 189.786 189.786 378.679 88.6529 615.843C36.9555 737.304 10.3983 867.978 10.5833 999.982L10.5833 2000L4.02288e-06 2000L-3.96893e-05 999.982C-6.37297e-05 450.003 450.003 7.17754e-05 999.982 4.7735e-05L2000 4.02288e-06L2000 10.5833Z" fill="white" fill-opacity="0.1"/>
<path d="M1333.25 2000L1333.25 1666.66C1333.25 1483.22 1483.25 1333.32 1666.59 1333.32L2000 1333.32L2000 1343.9L1666.66 1343.9C1581.13 1344.16 1499.18 1378.24 1438.69 1438.71C1378.21 1499.18 1344.1 1581.13 1343.83 1666.66L1343.83 2000L1333.25 2000Z" fill="white" fill-opacity="0.1"/>
</g>
</g>
<defs>
<clipPath id="clip0_3347_1461">
<rect width="2000" height="2000" fill="white" transform="matrix(-4.37114e-08 -1 -1 4.37114e-08 2000 2000)"/>
</clipPath>
<clipPath id="clip1_3347_1461">
<rect width="2000" height="2000" fill="white" transform="matrix(-4.37114e-08 -1 -1 4.37114e-08 2000 2000)"/>
</clipPath>
</defs>
</svg>
