<svg width="2000" height="2000" viewBox="0 0 2000 2000" fill="none" xmlns="http://www.w3.org/2000/svg">
<g clip-path="url(#clip0_3347_1454)">
<g clip-path="url(#clip1_3347_1454)">
<path d="M0 1010.57V999.982H499.991C775.157 999.982 1000.02 1224.98 1000.02 1500.01V2000H989.434V1500.01C989.034 1370.32 937.34 1246.06 845.638 1154.36C753.936 1062.66 629.677 1010.97 499.991 1010.57H0Z" fill="white" fill-opacity="0.1"/>
<path d="M1989.42 2000V999.982C1989.6 867.978 1963.04 737.304 1911.35 615.843C1810.21 378.679 1621.32 189.786 1384.16 88.6529C1262.7 36.9556 1132.02 10.3983 1000.02 10.5833H0V4.02288e-06H1000.02C1550 4.02288e-06 2000 450.003 2000 999.982V2000H1989.42Z" fill="white" fill-opacity="0.1"/>
<path d="M0 1333.25H333.339C516.783 1333.25 666.678 1483.25 666.678 1666.59V2000H656.095V1666.66C655.844 1581.13 621.761 1499.18 561.289 1438.69C500.817 1378.21 418.869 1344.1 333.339 1343.83H0V1333.25Z" fill="white" fill-opacity="0.1"/>
</g>
</g>
<defs>
<clipPath id="clip0_3347_1454">
<rect width="2000" height="2000" fill="white" transform="matrix(1 0 0 -1 0 2000)"/>
</clipPath>
<clipPath id="clip1_3347_1454">
<rect width="2000" height="2000" fill="white" transform="matrix(1 0 0 -1 0 2000)"/>
</clipPath>
</defs>
</svg>
